<svg width="190" height="190" viewBox="0 0 190 190" fill="none" xmlns="http://www.w3.org/2000/svg">
<path d="M156.036 160.656C156.812 160.946 157.642 161.066 158.468 161.006C159.134 160.949 159.757 160.657 160.228 160.183C160.698 159.71 160.985 159.084 161.037 158.418C161.083 157.475 160.919 156.533 160.556 155.661C161.138 155.82 161.735 155.919 162.338 155.955C162.536 155.986 162.739 155.973 162.932 155.918C163.125 155.863 163.304 155.767 163.457 155.636C163.609 155.506 163.732 155.344 163.816 155.161C163.9 154.979 163.944 154.781 163.944 154.58C164.069 152.573 164.313 150.473 162.306 149.073C162.239 149.007 162.201 148.917 162.2 148.823C162.202 148.798 162.21 148.773 162.222 148.751C162.234 148.729 162.251 148.71 162.271 148.695C162.291 148.679 162.313 148.668 162.338 148.662C162.362 148.656 162.388 148.656 162.413 148.66C163.157 148.804 163.732 148.36 164.363 148.116C164.87 147.92 165.313 147.588 165.643 147.157C165.974 146.726 166.18 146.212 166.238 145.672C166.371 144.976 166.366 144.26 166.222 143.566C166.078 142.872 165.799 142.214 165.401 141.627C164.888 140.815 164.594 139.846 163.794 139.252C163.132 138.788 162.438 138.37 161.719 138.002C161.362 137.808 161.387 137.677 161.719 137.477C162.294 137.108 162.875 136.739 163.438 136.345C164.366 135.688 165.206 134.915 165.938 134.045C166.876 132.938 167.957 131.944 168.626 130.638C169.581 128.697 170.262 126.633 170.652 124.506C171.277 121.236 171.702 117.929 170.995 114.572C170.623 112.56 169.765 110.67 168.495 109.065C167.207 107.484 165.513 106.327 164.007 104.983C162.5 103.639 160.881 102.551 159.318 101.345C159.193 101.245 158.899 101.207 159.006 100.989C159.112 100.77 159.375 100.932 159.543 100.989C160.794 101.314 162.081 101.507 163.338 101.814C165.571 102.397 167.896 102.54 170.183 102.233C172.868 101.879 175.516 101.289 178.097 100.47C179.166 100.069 180.21 99.6032 181.222 99.0758C182.473 98.4944 183.754 97.9943 184.973 97.4004C186.317 96.7753 187.636 96.0252 188.968 95.3376C189.136 95.25 189.274 95.1438 189.261 94.9437C189.256 94.863 189.225 94.7863 189.172 94.7253C189.118 94.6643 189.047 94.6225 188.968 94.6062C188.743 94.5841 188.528 94.5045 188.342 94.3749C187.561 93.656 186.523 93.4059 185.629 92.8871C184.285 92.112 182.798 91.6369 181.397 90.9742C180.394 90.4132 179.349 89.9305 178.272 89.5302C175.391 88.6221 172.428 87.9941 169.426 87.6549C167.995 87.5111 166.552 87.5552 165.132 87.7861C163.257 88.1237 161.381 88.4675 159.506 88.9426C159.337 88.9801 159.087 89.1489 158.974 88.9426C158.862 88.7363 159.162 88.6801 159.287 88.5925C160.594 87.6549 161.788 86.5547 163.119 85.6607C164.451 84.7668 165.488 83.5416 166.745 82.5352C169.814 80.1347 170.989 76.7966 171.308 73.0646C171.356 71.651 171.291 70.2359 171.114 68.8326C170.996 66.9908 170.652 65.1705 170.089 63.4128C169.651 62.0751 169.42 60.6311 168.676 59.4308C167.107 56.6985 164.876 54.4048 162.188 52.7608C161.931 52.6108 161.512 52.4733 161.5 52.1795C161.487 51.8857 161.969 51.8419 162.194 51.6356C162.25 51.5856 162.338 51.5794 162.406 51.5418C163.257 51.048 164.157 50.6167 164.651 49.6665C164.894 49.2039 165.144 48.7351 165.413 48.2725C166.002 47.3642 166.327 46.3102 166.351 45.2282C166.32 42.8215 165.101 41.6025 162.531 41.2399C162.388 41.2399 162.238 41.2399 162.206 41.0836C162.175 40.9274 162.288 40.8523 162.413 40.7648C162.836 40.4585 163.189 40.0652 163.448 39.6113C163.706 39.1574 163.865 38.6534 163.913 38.1331C163.994 37.3733 164.025 36.609 164.007 35.8452C164.007 34.7762 163.432 33.876 162.1 33.9698C161.606 34.0136 161.125 34.1823 160.556 34.2199C160.943 33.3289 161.106 32.3566 161.031 31.3881C160.954 30.7838 160.687 30.2197 160.268 29.7779C159.848 29.3361 159.299 29.0396 158.699 28.9314C157.798 28.8362 156.886 28.9518 156.036 29.2689C155.724 29.4127 155.674 29.3002 155.768 29.0251C155.927 28.5355 155.995 28.0204 155.968 27.5061C155.976 27.2603 155.915 27.0171 155.793 26.8039C155.67 26.5907 155.49 26.416 155.274 26.2996C154.862 26.0725 154.393 25.9663 153.924 25.9933C152.098 25.9933 150.26 25.9308 149.073 27.7311C149.041 27.7676 148.999 27.7927 148.952 27.8026C148.905 27.8126 148.856 27.8068 148.813 27.7862C148.769 27.7656 148.734 27.7313 148.712 27.6886C148.69 27.6458 148.683 27.5971 148.691 27.5499C148.823 26.8122 148.373 26.2371 148.129 25.6057C147.944 25.1114 147.628 24.6772 147.213 24.3509C146.798 24.0245 146.302 23.8185 145.778 23.7554C144.446 23.4864 143.061 23.7321 141.903 24.443C140.596 25.2182 139.183 25.7995 138.533 27.3248C138.389 27.6686 138.171 27.9499 138.002 28.3125C137.833 28.6751 137.677 28.5813 137.508 28.3125C137.339 28.0437 137.077 27.6874 136.883 27.3311C136.092 26.0421 135.095 24.8913 133.932 23.9242C132.776 22.9552 131.732 21.8175 130.319 21.1987C128.458 20.376 126.51 19.7658 124.512 19.3796C121.28 18.7545 118.017 18.3544 114.697 19.0233C112.025 19.4902 109.588 20.842 107.777 22.8615C106.902 23.8492 106.058 24.8556 105.177 25.8308C104.208 26.881 103.414 28.1312 102.52 29.2627C102.142 29.8569 101.691 30.401 101.176 30.8817C101.137 31.2226 100.97 31.5357 100.707 31.7569C100.801 31.4693 100.889 31.1755 100.976 30.888L101.039 30.6379C101.014 30.5828 101.002 30.5232 101.002 30.4629C101.002 30.4026 101.014 30.343 101.039 30.2879C101.554 28.3446 101.95 26.3719 102.226 24.3805C102.485 22.5107 102.444 20.6117 102.108 18.7545C101.845 17.4042 101.545 16.0664 101.251 14.7224C100.963 13.1754 100.484 11.6699 99.8259 10.2404C99.4696 9.52772 99.0695 8.83384 98.7632 8.08995C98.1381 6.60217 97.513 5.14565 96.7566 3.71413C96.2331 2.87028 95.7734 1.9885 95.3813 1.07614C95.3623 0.989279 95.3153 0.911058 95.2476 0.853471C95.1798 0.795883 95.095 0.762109 95.0062 0.757328C94.9154 0.754954 94.8269 0.786173 94.7577 0.845003C94.6885 0.903834 94.6435 0.986136 94.6312 1.07614C94.6029 1.27031 94.5325 1.45594 94.4249 1.61999C93.6031 2.83487 92.9136 4.13417 92.3682 5.49572C91.4868 7.37107 90.6492 9.32143 89.749 11.2155C89.4892 11.7966 89.2801 12.3989 89.1239 13.0159C88.8051 14.1661 88.63 15.3538 88.405 16.529C88.0368 18.0109 87.7901 19.5204 87.6674 21.0424C87.6283 23.2147 87.8444 25.3841 88.3112 27.5061C88.5735 28.4517 88.7554 29.4179 88.8551 30.3941C88.9989 30.4316 89.0239 30.5254 88.9739 30.6504L89.0364 30.9005L89.3114 31.7756H89.2552L88.8551 31.0943C88.7238 30.913 88.5863 30.7317 88.4613 30.5379C87.5986 29.2689 86.5109 28.1312 85.642 26.881C84.7731 25.6307 83.5603 24.5868 82.6164 23.3491C80.3097 20.311 77.0279 19.1358 73.4147 18.7169C71.4956 18.4982 69.5765 18.8545 67.6636 19.0233C67.0146 19.0501 66.3698 19.1401 65.7383 19.2921L61.675 20.5048C60.2814 20.8363 58.9802 21.4773 57.868 22.3801C57.1679 23.0052 56.4615 23.6304 55.7426 24.2555C54.5808 25.2809 53.591 26.486 52.8108 27.8249C52.6483 28.0875 52.517 28.5375 52.1857 28.5313C51.8544 28.525 51.8606 28.0437 51.6544 27.8124C51.6169 27.7749 51.6169 27.7061 51.5856 27.6499C51.0605 26.6559 50.4979 25.6933 49.3977 25.1994C49.0395 25.0355 48.6928 24.8476 48.36 24.6368C47.4108 23.9951 46.2862 23.6631 45.1406 23.6866C42.7589 23.7741 41.6712 25.0369 41.2899 27.4748C41.2899 27.6061 41.3399 27.7624 41.1711 27.8187C41.0024 27.8749 40.9086 27.7374 40.8148 27.5999C40.5269 27.1735 40.1355 26.8272 39.6771 26.5934C38.3045 25.9808 36.7759 25.8083 35.3013 26.0996C35.1137 26.1112 34.9307 26.1619 34.7638 26.2484C34.597 26.3348 34.45 26.4552 34.3323 26.6017C34.2147 26.7482 34.1289 26.9176 34.0804 27.0992C34.032 27.2808 34.022 27.4705 34.0511 27.6561C34.0415 28.1495 34.1111 28.6413 34.2573 29.1126C34.3261 29.3064 34.3449 29.5065 34.0386 29.3627C33.242 29.0585 32.3885 28.9326 31.5381 28.9939C30.8733 29.0539 30.2512 29.3473 29.782 29.8222C29.3129 30.297 29.027 30.9226 28.9751 31.5881C28.9254 32.5322 29.0922 33.4751 29.4627 34.3449C28.8777 34.1794 28.2758 34.0809 27.6686 34.0511C27.4704 34.0204 27.268 34.033 27.0751 34.088C26.8823 34.1431 26.7037 34.2392 26.5516 34.37C26.3995 34.5007 26.2775 34.6628 26.1941 34.8451C26.1107 35.0275 26.0678 35.2258 26.0683 35.4263C25.9495 37.4267 25.6995 39.5333 27.7061 40.9274C27.7736 40.9957 27.8117 41.0876 27.8124 41.1837C27.8094 41.2082 27.8014 41.2318 27.7889 41.2532C27.7764 41.2745 27.7597 41.293 27.7398 41.3077C27.7199 41.3223 27.6973 41.3327 27.6732 41.3383C27.6491 41.3438 27.6242 41.3444 27.5998 41.3399C26.881 41.1774 26.2558 41.615 25.6307 41.8838C25.1241 42.0801 24.6812 42.4119 24.3504 42.843C24.0197 43.2741 23.8138 43.7878 23.7554 44.328C23.6199 45.0236 23.6236 45.7393 23.7663 46.4335C23.909 47.1277 24.1879 47.7867 24.5868 48.3725C25.0931 49.1664 25.3744 50.1228 26.1496 50.7042C26.8251 51.1711 27.5333 51.5889 28.2687 51.9544C28.6063 52.142 28.6188 52.2732 28.3 52.4795C27.7249 52.8483 27.156 53.2297 26.5872 53.6047C25.5851 54.2926 24.6863 55.1198 23.9179 56.0614C22.9427 57.2117 21.8113 58.2619 21.1986 59.6746C20.3755 61.5422 19.7653 63.4966 19.3796 65.5007C18.7544 68.7138 18.3606 71.9582 19.017 75.2525C19.4775 77.9459 20.8318 80.4057 22.8615 82.2351C23.7429 83.0165 24.6868 83.7229 25.5307 84.5543C26.6684 85.667 28.0874 86.4296 29.2814 87.4861C29.8631 87.8807 30.4035 88.3331 30.8942 88.8363C31.2678 88.8895 31.6131 89.0655 31.8757 89.3364L30.9005 89.0301L30.6567 88.9676H30.4254C28.6125 88.5363 26.7872 88.1487 24.9494 87.8549C23.0659 87.5705 21.1505 87.5705 19.267 87.8549C17.7167 88.0799 16.1915 88.48 14.6537 88.8113C13.1412 89.0892 11.6706 89.5598 10.2779 90.2116C9.54646 90.5742 8.83383 90.9805 8.06493 91.2931C6.60216 91.9182 5.15814 92.5433 3.73912 93.2809C2.89605 93.802 2.01653 94.2616 1.10738 94.6562C0.919845 94.7249 0.782319 94.8312 0.776068 95.025C0.769816 95.2188 0.926096 95.3688 1.14489 95.4251C1.31751 95.4573 1.48276 95.5209 1.63248 95.6126C2.84736 96.4344 4.14666 97.1239 5.5082 97.6693C7.38356 98.5569 9.32767 99.4008 11.228 100.282C11.8301 100.567 12.4581 100.793 13.1034 100.957C14.0411 101.189 14.9787 101.351 15.9477 101.514C17.4729 101.77 18.9357 102.27 20.511 102.345C22.5895 102.47 24.6753 102.315 26.7122 101.883C27.8436 101.62 28.9876 101.42 30.1191 101.17C30.5129 101.082 30.8755 100.795 31.3693 101.051C31.163 101.176 30.963 101.27 30.7879 101.401C29.494 102.364 28.2875 103.439 26.956 104.339C25.6245 105.239 24.6305 106.44 23.3803 107.402C20.2547 109.803 19.0732 113.147 18.7544 116.904C18.7336 118.315 18.7941 119.726 18.9357 121.13C19.0107 123.862 19.9484 126.356 20.6861 128.919C21.4549 131.582 23.4553 133.382 25.2557 135.314C26.1491 136.163 27.1494 136.892 28.2312 137.483C28.7313 137.796 28.6313 137.927 28.1937 138.164C26.9997 138.789 25.7495 139.377 25.1619 140.734C25.0176 141.058 24.8505 141.371 24.6618 141.671C24.0192 142.622 23.6872 143.749 23.7116 144.897C23.8054 147.26 25.0494 148.36 27.5061 148.735C27.6374 148.735 27.7936 148.691 27.8499 148.866C27.9062 149.041 27.7999 149.11 27.6686 149.191C27.2025 149.504 26.8289 149.935 26.5872 150.442C25.9987 151.804 25.8395 153.313 26.1308 154.767C26.1395 154.957 26.1884 155.142 26.2743 155.311C26.3603 155.48 26.4812 155.628 26.6292 155.746C26.7771 155.865 26.9485 155.95 27.1321 155.997C27.3157 156.044 27.5071 156.051 27.6936 156.018C28.0866 156.025 28.479 155.985 28.8626 155.899C29.0376 155.849 29.2502 155.655 29.4064 155.836C29.5627 156.018 29.3189 156.155 29.2689 156.318C28.9335 157.228 28.8876 158.219 29.1376 159.156C29.6315 160.494 30.6442 161.312 32.507 161.069C33.156 161.014 33.7906 160.847 34.3824 160.575C34.1483 161.217 34.0421 161.899 34.0698 162.581C34.0684 162.817 34.1296 163.049 34.2471 163.253C34.3647 163.457 34.5343 163.627 34.7387 163.744C35.2044 164.005 35.7391 164.116 36.2702 164.063C38.0268 164.063 39.8084 164.063 40.9398 162.344C40.9681 162.303 41.0088 162.271 41.0559 162.254C41.1031 162.238 41.1543 162.236 41.2024 162.25C41.251 162.262 41.2934 162.292 41.3212 162.333C41.349 162.375 41.3601 162.426 41.3524 162.475C41.2024 163.219 41.6525 163.794 41.8963 164.426C42.0813 164.931 42.4042 165.375 42.8285 165.706C43.2527 166.038 43.7614 166.244 44.2967 166.301C44.9125 166.44 45.5497 166.457 46.1718 166.349C46.794 166.242 47.3889 166.013 47.9224 165.676C48.585 165.238 49.3539 164.951 50.0353 164.513C50.9917 163.888 51.3668 162.838 51.9107 161.906C52.1482 161.5 52.267 161.331 52.592 161.856C53.2252 162.914 53.9445 163.917 54.7424 164.857C55.1113 165.276 55.5738 165.576 55.9927 165.951C56.9794 166.992 58.1048 167.892 59.3371 168.626C61.2939 169.594 63.3772 170.282 65.5257 170.67C68.7888 171.296 72.1019 171.721 75.4526 171.014C77.4653 170.644 79.3564 169.785 80.9598 168.514C82.5414 167.226 83.6729 165.513 85.0481 164.032C86.0296 162.969 86.8172 161.731 87.6924 160.575C88.0612 160.093 88.4425 159.618 88.8113 159.137C88.8738 159.05 88.9363 158.962 89.0426 159.031C89.1489 159.1 89.1114 159.168 89.1051 159.237C89.097 159.356 89.076 159.473 89.0426 159.587C88.5675 161.412 88.205 163.263 87.9049 165.126C87.608 167.027 87.608 168.963 87.9049 170.864C88.1424 172.414 88.58 173.927 88.8488 175.484C89.1289 176.981 89.6038 178.436 90.2616 179.81C90.5992 180.535 91.018 181.216 91.318 181.966C91.8807 183.367 92.4995 184.742 93.1934 186.092C93.6872 187.061 94.2748 187.967 94.7124 188.98C94.7874 189.161 94.9 189.299 95.0938 189.286C95.1839 189.284 95.2702 189.249 95.3368 189.188C95.4034 189.128 95.4458 189.045 95.4563 188.955C95.4856 188.76 95.5583 188.574 95.6689 188.411C96.5753 187.161 97.0879 185.761 97.7818 184.429C98.4069 183.285 98.7569 182.035 99.3508 180.891C99.8875 179.873 100.341 178.813 100.707 177.722C101.133 176.33 101.467 174.912 101.707 173.477C102.057 172.171 102.292 170.836 102.408 169.489C102.498 167.762 102.398 166.03 102.108 164.325C101.77 162.713 101.482 161.087 101.089 159.487C101.051 159.337 100.895 159.112 101.139 159.031C101.382 158.949 101.37 159.206 101.451 159.318C102.401 160.644 103.514 161.819 104.414 163.2C105.221 164.451 106.39 165.332 107.252 166.507C109.584 169.67 112.91 170.97 116.629 171.371C118.954 171.621 121.286 171.171 123.605 170.933C125.024 170.789 126.331 170.189 127.694 169.827C128.746 169.581 129.761 169.199 130.713 168.689C132.437 167.596 134.015 166.287 135.408 164.794C136.215 163.914 136.918 162.943 137.502 161.9C137.789 161.45 137.914 161.419 138.183 161.9C138.808 163.094 139.383 164.357 140.746 164.944C141.071 165.084 141.385 165.249 141.684 165.438C142.658 166.079 143.8 166.416 144.966 166.407C145.969 166.401 146.931 166 147.642 165.291C148.353 164.582 148.756 163.623 148.766 162.619C148.766 162.481 148.71 162.331 148.879 162.269C149.048 162.206 149.141 162.338 149.235 162.475C149.537 162.915 149.946 163.272 150.423 163.513C151.784 164.102 153.292 164.265 154.749 163.982C154.939 163.975 155.125 163.928 155.296 163.844C155.467 163.76 155.618 163.641 155.74 163.495C155.861 163.349 155.951 163.178 156.002 162.995C156.053 162.812 156.065 162.62 156.036 162.431C156.043 161.94 155.974 161.451 155.83 160.981C155.655 160.656 155.736 160.544 156.036 160.656ZM163.263 152.242C163.341 152.938 163.341 153.64 163.263 154.336C163.113 155.143 162.75 155.374 161.956 155.243C160.89 154.989 159.892 154.507 159.031 153.83C157.099 152.58 155.905 150.573 154.161 149.116C153.098 148.222 152.092 147.241 151.086 146.303C150.51 145.76 149.948 145.191 149.429 144.597C148.718 143.777 147.913 143.044 147.028 142.415C147.86 142.415 148.504 142.415 149.141 142.415C149.992 142.459 150.829 142.278 151.642 142.303C151.939 142.283 152.237 142.324 152.518 142.424C152.799 142.524 153.056 142.681 153.273 142.884C155.041 144.775 157.065 146.408 159.287 147.735C160.276 148.377 161.224 149.081 162.125 149.842C162.479 150.139 162.764 150.51 162.96 150.929C163.157 151.348 163.26 151.804 163.263 152.267V152.242ZM163.938 140.434C164.664 141.409 165.212 142.506 165.557 143.672C165.783 144.522 165.728 145.424 165.401 146.241C164.994 147.191 164.15 147.541 163.3 147.885C162.894 148 162.473 148.059 162.05 148.06C161.822 148.092 161.59 148.069 161.373 147.994C161.156 147.919 160.959 147.794 160.8 147.629C160.222 147.099 159.535 146.702 158.787 146.466C157.839 146.041 156.967 145.465 156.205 144.759C155.211 143.903 154.374 142.884 153.286 142.021C155.265 141.345 157.144 140.407 158.874 139.233C159.368 138.889 159.912 138.608 160.437 138.296C160.486 138.262 160.544 138.244 160.603 138.244C160.662 138.244 160.72 138.262 160.769 138.296C161.856 138.977 163.213 139.315 163.938 140.459V140.434ZM162.919 88.8613C165.085 88.4426 167.289 88.2499 169.495 88.2862C170.45 88.3828 171.394 88.5563 172.321 88.8051C173.621 89.0614 174.927 89.2927 176.215 89.5927C177.313 89.8772 178.379 90.273 179.397 90.7742C180.691 91.3681 181.948 92.062 183.279 92.562C184.611 93.0621 185.78 93.9185 187.13 94.3999C187.417 94.4999 187.755 94.7124 187.755 94.9938C187.755 95.2751 187.392 95.4313 187.13 95.5501C185.942 96.069 184.861 96.8378 183.667 97.2754C181.31 98.1381 179.178 99.4946 176.753 100.195C175.503 100.557 174.165 100.739 172.865 101.014C172.008 101.195 171.152 101.414 170.289 101.557C168.838 101.762 167.365 101.762 165.913 101.557C163.233 101.205 160.581 100.658 157.981 99.9197C156.274 99.4696 154.692 98.6694 153.048 98.0443C152.399 97.7831 151.73 97.5741 151.048 97.4192C150.317 97.2629 149.673 96.8816 148.948 96.7003C147.641 96.3753 146.447 95.7064 145.116 95.4188C144.672 95.3251 144.297 95.0438 143.822 94.9562C145.403 94.4749 146.947 93.8623 148.466 93.3622C149.742 92.9454 151.004 92.5099 152.254 92.0557C155.749 90.8367 159.231 89.5302 162.919 88.8864V88.8613ZM158.868 100.932L158.831 101.007C158.831 101.007 158.787 101.007 158.793 100.97C158.804 100.942 158.817 100.915 158.831 100.889L158.868 100.932ZM158.781 89.0239L158.856 88.9864L158.899 89.0239C158.876 89.0425 158.848 89.0554 158.818 89.0614C158.818 89.0614 158.781 89.0426 158.781 89.0239ZM162.194 41.8838C163.223 41.9273 164.203 42.3324 164.963 43.0278C165.217 43.279 165.412 43.5842 165.532 43.9207C165.652 44.2573 165.695 44.6165 165.657 44.9719C165.62 45.9974 165.372 47.0043 164.927 47.9294C164.483 48.8545 163.853 49.6779 163.075 50.3479C162.382 50.8606 161.636 51.2985 160.85 51.6544C160.752 51.7119 160.639 51.7363 160.526 51.7239C160.413 51.7115 160.308 51.663 160.225 51.5856C159.193 50.9605 158.143 50.3354 157.099 49.7103C156.267 49.2038 155.377 48.7988 154.449 48.5038C154.049 48.3662 153.755 48.0224 153.13 48.0724C154.936 46.4846 156.33 44.7343 158.331 43.6966C158.829 43.5196 159.315 43.3108 159.787 43.0715C160.092 42.897 160.375 42.6872 160.631 42.4464C160.824 42.2292 161.067 42.0638 161.341 41.9655C161.614 41.8672 161.907 41.8391 162.194 41.8838ZM162.131 34.6887C162.355 34.6396 162.588 34.6768 162.785 34.7927C162.982 34.9087 163.128 35.0948 163.194 35.3138C163.782 36.8829 163.138 39.4146 161.825 40.4148C160.812 41.1962 159.781 41.9525 158.699 42.6277C156.739 43.8315 154.956 45.3045 153.405 47.0035C153.161 47.2407 152.852 47.3996 152.517 47.4598C150.754 48.0224 148.985 47.2035 147.254 47.6724C147.229 47.611 147.227 47.5429 147.247 47.48C147.268 47.4171 147.31 47.3635 147.366 47.3286C149.054 46.0783 150.292 44.353 151.854 42.9527C153.105 41.8588 154.28 40.7273 155.455 39.5709C156.386 38.6519 157.174 37.5705 158.181 36.7516C159.331 35.8202 160.531 34.8512 162.131 34.7137V34.6887ZM158.487 29.6878C158.662 29.6878 158.668 29.8878 158.768 29.9378C159.306 30.2296 159.756 30.6616 160.068 31.188C160.168 31.3443 160.293 31.4443 160.306 31.6631C160.357 32.3299 160.25 32.9994 159.992 33.6165C159.735 34.2337 159.334 34.7811 158.824 35.2138C157.603 36.3196 156.453 37.5013 155.38 38.7519C154.899 39.2896 154.342 39.7584 153.811 40.246C152.144 41.7838 150.515 43.3611 148.923 44.9781C148.304 45.669 147.629 46.3068 146.903 46.8847C146.278 47.3536 145.591 47.7974 144.741 47.5599C144.034 47.6036 143.347 47.6286 142.659 47.6974C142.353 47.6974 142.29 47.6661 142.334 47.3598C142.458 46.6226 142.485 45.8724 142.415 45.1281C142.391 44.7816 142.437 44.4338 142.55 44.1053C142.662 43.7768 142.84 43.4741 143.071 43.2153C143.848 42.2366 144.696 41.3172 145.609 40.4648C146.522 39.5396 147.422 38.5894 148.322 37.6767C149.366 36.5953 150.348 35.4576 151.448 34.4386C152.73 33.2697 153.992 32.0694 155.199 30.788C156.08 29.7878 157.274 29.7065 158.487 29.7003V29.6878ZM148.485 29.6878C148.929 28.9942 149.431 28.3396 149.985 27.7311C150.493 27.1983 151.173 26.8618 151.904 26.781C152.732 26.6472 153.574 26.6346 154.405 26.7435C155.143 26.8685 155.38 27.1935 155.293 27.9374C155.161 29.1126 154.467 30.0003 153.874 30.9755C153.194 31.9431 152.384 32.8119 151.467 33.5572C149.654 35.2638 148.029 37.1454 146.328 38.952C145.764 39.5565 145.167 40.1304 144.541 40.6711C143.798 41.3161 143.118 42.0298 142.509 42.8027C142.509 41.2024 142.446 39.6396 142.346 38.0706C142.338 37.841 142.376 37.6122 142.458 37.3975C142.539 37.1829 142.663 36.9866 142.821 36.8203C145.178 34.8075 146.728 32.182 148.466 29.6878H148.485ZM138.327 29.2377C139.002 28.1437 139.333 26.7872 140.477 26.0621C141.454 25.3385 142.55 24.7925 143.715 24.4493C144.566 24.2209 145.467 24.2736 146.285 24.5993C147.235 25.0056 147.585 25.8495 147.929 26.7059C148.05 27.1116 148.111 27.5328 148.11 27.9562C148.147 28.1902 148.126 28.4297 148.05 28.654C147.974 28.8783 147.844 29.0808 147.672 29.2439C147.144 29.8205 146.747 30.5052 146.51 31.2505C146.084 32.2203 145.497 33.1104 144.772 33.8823C143.915 34.8512 142.928 35.6889 142.059 36.7641C141.377 34.7715 140.43 32.8794 139.246 31.138C138.914 30.6817 138.664 30.1566 138.371 29.669C138.312 29.6154 138.274 29.5431 138.262 29.4645C138.251 29.3859 138.267 29.3057 138.308 29.2377H138.327ZM89.2427 28.5438C88.9864 27.3936 88.7738 26.2309 88.5238 25.0744C88.4126 24.187 88.3604 23.2932 88.3675 22.3989C88.2724 20.7137 88.454 19.0244 88.9051 17.3979C89.1676 16.3227 89.2739 15.21 89.5302 14.1286C89.9342 12.6163 90.4936 11.1499 91.1993 9.75276C91.7465 8.71898 92.2086 7.6423 92.5808 6.53341C92.7681 6.08625 92.9962 5.65728 93.2622 5.25192C93.6747 4.45177 94.1123 3.65787 94.4499 2.82021C94.5624 2.55141 94.7812 2.1951 95.0062 2.1951C95.2313 2.1951 95.4751 2.57017 95.6314 2.82021C95.9627 3.5391 96.3315 4.22673 96.6628 4.93936C97.8255 7.43983 99.0195 9.9403 100.045 12.4783C100.423 13.5857 100.695 14.7264 100.857 15.8852C101.107 17.1979 101.482 18.5044 101.639 19.8297C101.846 21.5733 101.8 23.3378 101.501 25.0681C101.257 26.5559 100.914 28.0187 100.607 29.494C100.115 31.8278 99.3554 34.0973 98.3444 36.2577C98.012 37.0712 97.7363 37.9067 97.5192 38.7582C97.0691 40.1647 96.6253 41.5837 96.1002 42.9652C95.6939 44.0279 95.4751 45.1469 94.9812 46.2096C94.5437 44.603 93.8935 43.084 93.3997 41.5025C92.9996 40.2522 92.4495 39.002 92.1495 37.7518C91.7056 35.9827 90.7179 34.4324 90.2741 32.6758C89.8678 31.2881 89.5427 29.919 89.2239 28.5438H89.2427ZM41.8838 27.7874C41.9364 26.7484 42.3575 25.7622 43.0715 25.0056C43.631 24.5106 44.3635 24.2567 45.1094 24.2992C46.841 24.193 48.1287 25.2682 49.529 26.0183C50.4479 26.5122 50.6917 27.5624 51.248 28.3625C51.3168 28.4563 51.3543 28.575 51.4231 28.6688C51.576 28.8546 51.6596 29.0877 51.6596 29.3283C51.6596 29.5689 51.576 29.802 51.4231 29.9878C50.4108 31.4699 49.5202 33.0316 48.7601 34.6574C48.485 35.2826 48.235 35.9702 47.9474 36.6891C46.4721 35.0013 44.7156 33.626 43.6904 31.6381C43.5891 31.435 43.4993 31.2263 43.4216 31.013C43.2481 30.4057 42.9356 29.8471 42.5089 29.3814C42.2856 29.1844 42.1125 28.9371 42.0038 28.6599C41.8951 28.3827 41.854 28.0836 41.8838 27.7874ZM35.7951 26.7247C36.9012 26.5689 38.0287 26.6891 39.077 27.0748C39.6655 27.3539 40.1685 27.7856 40.5335 28.325C41.8463 30.2003 43.1278 32.0757 44.428 33.9511C45.1531 34.995 46.1908 35.7389 47.0285 36.6766C47.217 36.8883 47.3539 37.1408 47.4286 37.4142C47.9787 39.202 47.1848 41.0024 47.6349 42.7715L47.4723 42.834C47.066 42.3651 46.6972 41.8588 46.2221 41.44C45.1281 40.4085 44.0467 39.3771 43.0215 38.3144C41.865 37.0641 40.7273 35.8139 39.5521 34.6387C38.6332 33.7073 37.5705 32.9009 36.7266 31.9069C35.7272 30.8584 35.0427 29.5501 34.7512 28.1312C34.5949 27.156 34.845 26.781 35.8201 26.7247H35.7951ZM29.8378 31.2881C29.9065 31.2881 30.0191 31.213 30.0253 31.1568C30.1503 30.4566 30.8442 30.3191 31.238 29.9065C31.2932 29.844 31.3618 29.7947 31.4386 29.7622C31.5154 29.7298 31.5986 29.715 31.6819 29.719C32.3488 29.6668 33.0185 29.7739 33.6359 30.0315C34.2532 30.2891 34.8005 30.6898 35.2325 31.2005C36.3314 32.4145 37.5092 33.5547 38.7582 34.6137C39.283 35.1105 39.7817 35.6342 40.2522 36.1827C41.8025 37.8518 43.3778 39.5021 45.0031 41.0899C45.6898 41.7141 46.3194 42.3981 46.8847 43.134C47.3661 43.7966 47.8286 44.4843 47.5536 45.3094C47.6036 46.0471 47.6349 46.7159 47.6911 47.3786C47.6911 47.6224 47.6911 47.7536 47.4098 47.7099C46.5324 47.5809 45.6433 47.5515 44.7593 47.6224C44.1756 47.6023 43.6213 47.3609 43.209 46.9472C42.222 46.1967 41.3036 45.36 40.4648 44.4468C39.5396 43.5403 38.6519 42.5714 37.6767 41.7463C36.5515 40.7586 35.5013 39.6771 34.4636 38.6207C33.2947 37.3704 32.1695 36.1202 30.9067 35.0138C29.869 34.0886 29.7315 32.9009 29.719 31.6444C29.6917 31.578 29.6915 31.5035 29.7184 31.4369C29.7452 31.3704 29.797 31.3169 29.8628 31.2881H29.8378ZM27.7249 40.0084C27.1832 39.4833 26.8445 38.7837 26.7684 38.0331C26.6622 37.2385 26.6622 36.4334 26.7684 35.6389C26.8997 34.8575 27.2123 34.6199 27.9874 34.7137C29.1564 34.8512 30.0441 35.5451 31.0192 36.139C31.9853 36.82 32.8539 37.6297 33.601 38.5457C35.3138 40.3585 37.1891 41.9838 39.002 43.6904C39.7653 44.4245 40.4913 45.1965 41.1774 46.0033C41.665 46.5659 42.3276 46.9347 42.934 47.5786C41.2462 47.5098 39.7021 47.5786 38.1518 47.6536C37.9085 47.6713 37.6642 47.6376 37.4348 47.5547C37.2054 47.4718 36.9961 47.3415 36.8203 47.1723C34.8575 44.8343 32.2695 43.2903 29.8065 41.5837C29.0711 41.1159 28.3749 40.5891 27.7249 40.0084ZM26.0808 49.5602C25.3471 48.5907 24.7963 47.4955 24.4555 46.3284C24.2156 45.4595 24.2728 44.5355 24.618 43.7029C25.0244 42.784 25.8683 42.4526 26.6872 42.0901C27.1044 41.9738 27.5355 41.9149 27.9687 41.915C28.1959 41.8798 28.4283 41.9 28.646 41.9741C28.8637 42.0481 29.0603 42.1737 29.2189 42.3401C29.7984 42.8661 30.4821 43.2644 31.2255 43.5091C32.178 43.9291 33.0546 44.5036 33.8198 45.2094C34.8074 46.0721 35.6451 47.0848 36.7516 47.9537C34.7601 48.6359 32.8682 49.5797 31.1255 50.7604C30.6442 51.1043 30.1128 51.3856 29.6127 51.6669C29.567 51.7045 29.5114 51.728 29.4526 51.7347C29.3938 51.7413 29.3344 51.7308 29.2814 51.7044C28.1625 51.0543 26.8247 50.6854 26.0808 49.5602ZM27.0935 101.132C24.9299 101.523 22.7344 101.709 20.536 101.689C19.6362 101.663 18.7433 101.523 17.8793 101.27C16.579 100.932 15.2538 100.751 13.9473 100.451C12.7601 100.144 11.6047 99.7258 10.4966 99.2008C9.40894 98.7194 8.36499 98.1131 7.24603 97.7255C5.68324 97.1879 4.37049 96.1627 2.82645 95.6064C2.5639 95.5126 2.20134 95.2938 2.20134 95.0375C2.20134 94.7812 2.5639 94.5937 2.82645 94.4811C3.99542 93.9748 5.06437 93.2309 6.23334 92.7683C8.70255 91.8369 10.978 90.4366 13.516 89.7053C14.6349 89.3802 15.8039 89.2239 16.9479 88.9989C17.948 88.8051 18.9357 88.5488 19.9422 88.4488C21.6668 88.2725 23.4072 88.325 25.1181 88.605C26.5997 88.8614 28.0687 89.1927 29.544 89.499C31.8661 89.9725 34.1239 90.7196 36.2702 91.7244C36.9119 91.9959 37.572 92.2215 38.2456 92.3995C39.9834 92.9121 41.7025 93.4935 43.3966 94.1311C44.2967 94.4687 45.2282 94.7062 46.1471 94.9875C44.5968 95.5188 43.1028 96.119 41.5712 96.619C40.2835 97.0379 38.9957 97.4692 37.7267 97.938C34.2723 99.2822 30.7168 100.35 27.0935 101.132ZM25.0056 146.903C24.7643 146.658 24.579 146.364 24.4624 146.04C24.3459 145.716 24.3009 145.371 24.3305 145.028C24.3635 144.005 24.607 142.999 25.0458 142.074C25.4846 141.15 26.1093 140.325 26.881 139.652C27.576 139.138 28.3241 138.7 29.1126 138.346C29.2063 138.296 29.3131 138.276 29.4184 138.29C29.5236 138.303 29.6221 138.349 29.7002 138.421C30.7379 139.046 31.7819 139.671 32.8258 140.296C34.0438 141.006 35.3348 141.582 36.6765 142.015C34.9637 143.553 33.551 145.378 31.4756 146.347C30.527 146.71 29.6474 147.232 28.8751 147.891C28.6827 148.034 28.4446 148.1 28.2062 148.079C27.6212 148.107 27.0365 148.018 26.4867 147.816C25.937 147.614 25.4333 147.304 25.0056 146.903ZM28.1312 155.243C27.1435 155.393 26.7622 155.143 26.7059 154.174C26.5521 153.067 26.6745 151.94 27.0622 150.892C27.337 150.299 27.7695 149.793 28.3125 149.429C30.1878 148.122 32.0632 146.835 33.9385 145.534C34.9762 144.809 35.7264 143.772 36.6578 142.934C36.8716 142.746 37.1263 142.611 37.4017 142.54C39.1833 141.984 40.9899 142.778 42.7902 142.415C42.1651 143.084 41.4587 143.603 40.8773 144.29C38.902 146.51 36.6015 148.391 34.4949 150.479C33.5947 151.373 32.8321 152.417 31.8631 153.23C30.7754 154.124 29.6252 155.03 28.1312 155.255V155.243ZM31.5131 160.294C31.338 160.294 31.3193 160.125 31.2193 160.05C30.7247 159.745 30.2989 159.34 29.969 158.862C29.7878 158.571 29.6884 158.236 29.6815 157.893C29.6634 157.299 29.7807 156.71 30.0243 156.168C30.268 155.627 30.6318 155.148 31.088 154.767C33.1696 152.892 34.9512 150.735 37.0329 148.854C38.8207 147.241 40.4898 145.491 42.2088 143.797C42.7943 143.311 43.4079 142.86 44.0467 142.446C44.1316 142.404 44.2271 142.386 44.3217 142.396C45.3441 142.428 46.3675 142.39 47.3848 142.284C47.5911 142.284 47.6786 142.284 47.6474 142.528C47.5036 143.547 47.5661 144.572 47.5223 145.591C47.4282 146.041 47.2119 146.456 46.8972 146.791C46.1718 147.737 45.3666 148.62 44.4905 149.429C43.5403 150.392 42.5943 151.358 41.6525 152.329C40.5898 153.417 39.6021 154.586 38.4644 155.605C37.2141 156.743 35.9639 157.931 34.8137 159.187C33.9323 160.212 32.7508 160.287 31.5318 160.306L31.5131 160.294ZM41.5525 160.262C41.0973 160.971 40.5829 161.64 40.0147 162.263C39.4889 162.807 38.7863 163.146 38.0331 163.219C37.2423 163.338 36.4392 163.35 35.6451 163.257C34.8637 163.125 34.6449 162.813 34.7074 162.038C34.8762 161.003 35.3066 160.028 35.9577 159.206C37.2704 157.205 39.3208 155.911 40.8711 154.13C41.7838 153.084 42.7194 152.057 43.6779 151.048C44.2251 150.471 44.8009 149.923 45.4032 149.404C46.1678 148.725 46.8784 147.987 47.5286 147.197C47.5286 148.779 47.5849 150.323 47.6724 151.873C47.6898 152.117 47.656 152.363 47.5731 152.593C47.4902 152.823 47.3601 153.034 47.191 153.211C44.8406 155.193 43.2903 157.793 41.5712 160.275L41.5525 160.262ZM51.6481 160.837C51.1918 161.612 50.7667 162.413 50.2916 163.175C49.6665 164.194 48.4788 164.426 47.5536 165.051C46.6141 165.61 45.5021 165.806 44.428 165.601C43.8581 165.551 43.3305 165.279 42.959 164.844C42.2954 164.083 41.9155 163.116 41.8838 162.106C41.8568 161.862 41.8842 161.615 41.9642 161.382C42.0442 161.15 42.1747 160.938 42.3464 160.762C42.878 160.199 43.2736 159.521 43.5028 158.781C43.8121 158.061 44.2203 157.387 44.7156 156.78C45.6782 155.53 46.9347 154.536 47.9724 153.223C48.7351 155.874 50.2353 158.012 51.5668 160.237C51.6856 160.456 51.7981 160.619 51.6669 160.85L51.6481 160.837ZM88.9864 158.849C88.9864 158.849 88.9864 158.849 88.9488 158.818C88.9726 158.8 89.0005 158.787 89.0301 158.781C89.0301 158.781 89.0301 158.781 89.0676 158.818C89.0501 158.837 89.0288 158.852 89.0051 158.862L88.9864 158.849ZM101.12 163.225C101.516 165.221 101.698 167.254 101.664 169.289C101.589 170.301 101.42 171.303 101.157 172.283C100.901 173.602 100.707 174.94 100.376 176.24C100.072 177.332 99.6686 178.393 99.1695 179.41C98.5444 180.66 97.9193 181.91 97.4067 183.242C96.8941 184.573 96.0252 185.773 95.5313 187.136C95.4376 187.399 95.2125 187.761 94.9687 187.761C94.7249 187.761 94.5186 187.411 94.4061 187.136C93.906 185.923 93.1559 184.836 92.662 183.617C91.7306 181.191 90.3804 178.947 89.6115 176.459C89.403 175.612 89.2423 174.755 89.1301 173.89C88.9176 172.827 88.7113 171.758 88.4675 170.695C88.0987 169.101 88.33 167.495 88.38 165.895C88.43 164.294 88.9739 162.625 89.2927 160.994C89.7233 158.641 90.4413 156.351 91.4306 154.174C91.9141 153.049 92.3051 151.886 92.5995 150.698C92.8946 149.609 93.26 148.539 93.6935 147.497C94.1936 146.291 94.4624 144.997 94.9437 143.709C95.4563 145.009 95.7689 146.278 96.194 147.497C96.7463 148.93 97.2241 150.391 97.6255 151.873C98.0068 153.367 98.7819 154.717 99.2945 156.168C100.07 158.486 100.687 160.854 101.139 163.257L101.12 163.225ZM100.957 158.849C100.941 158.824 100.929 158.797 100.92 158.768C100.92 158.768 100.92 158.768 100.957 158.731L101.001 158.806L100.957 158.849ZM138.152 159.406C137.427 159.5 137.489 159.968 137.42 160.537C137.352 161.106 136.858 161.487 136.595 161.981C135.639 163.75 134.132 165.001 132.676 166.32C131.736 167.206 130.652 167.925 129.469 168.445C128.84 168.72 128.19 168.944 127.525 169.114C126.068 169.445 124.693 170.102 123.199 170.252C120.974 170.464 118.748 170.877 116.51 170.583C114.903 170.448 113.331 170.042 111.859 169.383C110.354 168.657 109.041 167.586 108.027 166.257C107.134 165.088 106.033 164.094 105.127 162.938C103.063 160.496 101.259 157.846 99.7446 155.03C99.2552 153.963 98.8983 152.84 98.6819 151.686C98.2584 149.383 97.5486 147.142 96.569 145.016C96.3754 144.544 96.2309 144.054 96.1377 143.553C96.0807 143.249 95.9324 142.97 95.7126 142.753C95.3688 142.428 95.4688 141.94 95.4563 141.502C95.469 141.069 95.5066 140.637 95.5688 140.208C95.6001 139.84 95.5688 139.583 95.0437 139.583C94.5186 139.583 94.4186 139.708 94.4186 140.177C94.5415 140.816 94.571 141.468 94.5061 142.115C94.4499 142.384 94.4749 142.646 94.1686 142.821C94.0198 142.948 93.9257 143.127 93.906 143.322C93.731 144.528 93.1121 145.572 92.6933 146.691C92.1118 148.323 91.6481 149.994 91.3055 151.692C90.9951 153.309 90.4004 154.858 89.549 156.268C89.0301 157.093 88.6175 157.999 88.0549 158.768C87.2985 159.856 86.3921 160.844 85.6357 161.931C84.2183 163.805 82.6925 165.593 81.0661 167.289C79.8276 168.626 78.2233 169.569 76.4528 170.002C74.1632 170.649 71.7635 170.811 69.4077 170.477C68.345 170.32 67.2448 170.37 66.1883 170.127C64.638 169.764 63.1315 169.251 61.6062 168.801C60.0568 168.358 58.6415 167.538 57.4867 166.413C56.7428 165.688 55.9052 165.069 55.1738 164.325C54.2429 163.25 53.42 162.086 52.7171 160.85C52.6314 160.742 52.5744 160.615 52.5514 160.479C52.5285 160.344 52.5403 160.204 52.5858 160.075C52.6159 160.011 52.6286 159.94 52.6225 159.87C52.6164 159.799 52.5918 159.732 52.5512 159.674C52.5105 159.616 52.4553 159.57 52.3911 159.541C52.3269 159.511 52.256 159.499 52.1857 159.506C52.0791 159.51 51.9737 159.481 51.8834 159.424C51.7931 159.368 51.722 159.285 51.6794 159.187C50.3791 157.074 49.0601 154.961 48.435 152.523C48.2472 151.566 48.1716 150.591 48.21 149.616C48.21 147.822 48.21 146.022 48.21 144.228C48.1696 143.584 48.2458 142.938 48.435 142.321C48.4566 142.214 48.4519 142.104 48.4215 141.999C48.391 141.894 48.3356 141.799 48.26 141.72C48.1845 141.641 48.0909 141.582 47.9875 141.548C47.8841 141.513 47.7738 141.504 47.6661 141.521C46.605 141.778 45.51 141.864 44.4218 141.778C42.7402 141.778 41.0524 141.709 39.3708 141.728C38.0825 141.685 36.8122 141.412 35.6201 140.921C33.8823 140.296 32.3882 139.215 30.8004 138.302C30.6931 138.26 30.6013 138.185 30.5376 138.089C30.4739 137.993 30.4412 137.88 30.4441 137.764C30.4514 137.698 30.4413 137.632 30.415 137.571C30.3886 137.51 30.3469 137.457 30.2939 137.418C30.2409 137.378 30.1784 137.353 30.1127 137.344C30.047 137.336 29.9802 137.345 29.919 137.37C29.4689 137.539 29.1689 137.283 28.8313 137.095C26.8354 135.933 25.0703 134.414 23.6241 132.613C22.7653 131.655 22.0571 130.571 21.5237 129.4C21.2613 128.794 21.0521 128.167 20.8986 127.525C20.5548 126.05 19.8859 124.656 19.7421 123.149C19.5296 120.942 19.117 118.736 19.4108 116.517C19.5494 114.829 19.9876 113.18 20.7048 111.647C21.4073 110.265 22.3986 109.049 23.6116 108.084C24.3081 107.542 24.9699 106.958 25.5932 106.333C26.5434 105.346 27.7561 104.708 28.7626 103.802C30.6797 102.21 32.7779 100.851 35.0137 99.7509C36.072 99.2374 37.1982 98.8774 38.3581 98.6819C40.6762 98.2463 42.9328 97.5305 45.0781 96.5503C45.4958 96.3778 45.9291 96.2459 46.3721 96.1565C46.7308 96.0903 47.0641 95.9258 47.3348 95.6814C47.6724 95.3563 48.1912 95.4438 48.635 95.4501C49.0789 95.4563 49.4915 95.5251 49.9228 95.5626C50.3541 95.6001 50.4416 95.4126 50.4354 95C50.4291 94.5874 50.3729 94.3749 49.9353 94.4186C49.2378 94.5404 48.5268 94.5657 47.8224 94.4937C47.5911 94.4436 47.3786 94.4374 47.1973 94.1936C47.0766 94.0411 46.9021 93.9405 46.7097 93.9123C45.3969 93.7185 44.2842 93.0121 43.0653 92.5933C41.5029 92.0592 39.9076 91.627 38.2894 91.2993C36.6711 90.9895 35.1213 90.3925 33.7135 89.5365C33.0196 89.0926 32.2757 88.7301 31.5756 88.2862C30.5567 87.6611 29.7002 86.8547 28.7001 86.1546C26.981 84.9044 25.4432 83.4541 23.8241 82.0976C22.7775 81.25 21.8722 80.2414 21.1424 79.1095C20.4323 77.9777 19.9562 76.7152 19.7421 75.3963C19.5421 74.2148 19.1795 73.0521 19.3108 71.8332C19.5046 69.8265 19.4483 67.7824 19.9359 65.8133C20.286 64.3943 20.7548 63.0127 21.1861 61.6125C21.6237 60.0616 22.44 58.6438 23.5616 57.4867C24.2805 56.7428 24.9118 55.9177 25.6432 55.18C26.7152 54.2323 27.8796 53.3946 29.1189 52.6796C29.2353 52.5896 29.3724 52.5303 29.5178 52.5074C29.6631 52.4845 29.8118 52.4985 29.9503 52.5483C30.011 52.5733 30.0771 52.5823 30.1422 52.5742C30.2074 52.5662 30.2693 52.5415 30.3221 52.5026C30.3749 52.4636 30.4168 52.4117 30.4436 52.3518C30.4705 52.2919 30.4814 52.2261 30.4754 52.1607C30.4702 52.0569 30.4952 51.9539 30.5473 51.864C30.5995 51.7742 30.6765 51.7014 30.7692 51.6544C32.8883 50.3416 35.02 49.0289 37.4642 48.3913C38.4207 48.2003 39.3965 48.1248 40.371 48.1662C42.1651 48.1662 43.9654 48.1662 45.7595 48.1662C46.3926 48.1274 47.0276 48.2015 47.6349 48.385C47.7418 48.409 47.8531 48.4064 47.9588 48.3774C48.0645 48.3483 48.1614 48.2937 48.2411 48.2184C48.3208 48.143 48.3807 48.0493 48.4156 47.9454C48.4505 47.8414 48.4593 47.7305 48.4413 47.6224C48.1828 46.5616 48.0942 45.4665 48.1787 44.378C48.1787 42.6964 48.235 41.0086 48.235 39.3271C48.2635 38.0383 48.5327 36.7662 49.0289 35.5764C49.7736 33.9001 50.6515 32.2863 51.6544 30.7505C51.6977 30.6426 51.7731 30.5506 51.8704 30.4869C51.9676 30.4232 52.082 30.3908 52.1982 30.3941C52.2636 30.4002 52.3294 30.3892 52.3893 30.3624C52.4492 30.3355 52.5011 30.2937 52.5401 30.2409C52.579 30.1881 52.6037 30.1261 52.6117 30.061C52.6198 29.9958 52.6108 29.9297 52.5858 29.869C52.417 29.419 52.6733 29.1126 52.8671 28.7751C54.0265 26.7846 55.5415 25.0238 57.3367 23.5804C58.2983 22.7159 59.3833 21.9996 60.556 21.455C61.1852 21.192 61.8356 20.9829 62.5001 20.8298C63.9567 20.5048 65.3257 19.8359 66.8197 19.6921C69.0451 19.4796 71.2705 19.067 73.5085 19.3608C75.156 19.4908 76.767 19.9142 78.2656 20.611C79.7134 21.3135 80.9782 22.3428 81.96 23.6179C82.4022 24.2129 82.8847 24.7768 83.4041 25.3057C84.8981 26.7935 85.9983 28.6 87.3423 30.2066C88.5488 31.6506 89.3239 33.3322 90.2366 34.9637C90.7639 36.017 91.1266 37.1449 91.3118 38.3081C91.7327 40.6239 92.4491 42.876 93.4434 45.0094C93.6167 45.4262 93.7466 45.8599 93.831 46.3034C93.8914 46.685 94.0683 47.0387 94.3374 47.3161C94.6312 47.5911 94.5311 48.0599 94.5562 48.4413C94.5456 48.7553 94.5164 49.0684 94.4686 49.3789C94.4686 49.704 94.2873 50.1041 94.5749 50.3291C94.7011 50.4058 94.846 50.4464 94.9937 50.4464C95.1415 50.4464 95.2863 50.4058 95.4126 50.3291C95.7314 50.1228 95.5751 49.704 95.5376 49.3977C95.4532 48.9317 95.4342 48.4562 95.4813 47.9849C95.5376 47.6661 95.4813 47.3598 95.8627 47.1223C96.0043 46.9873 96.0911 46.8047 96.1064 46.6097C96.332 45.6216 96.6762 44.6645 97.1316 43.7591C97.8035 42.0557 98.3162 40.2937 98.6632 38.4957C98.9826 36.8018 99.5961 35.177 100.476 33.6948C100.982 32.8821 101.382 31.9944 101.933 31.1943C102.695 30.1066 103.602 29.1251 104.352 28.0312C105.427 26.4621 106.852 25.1932 107.984 23.7054C109.019 22.3216 110.395 21.2296 111.978 20.536C114.31 19.5145 116.867 19.116 119.398 19.3796C120.955 19.5421 122.524 19.4921 124.068 19.9109C125.612 20.3297 126.925 20.7486 128.35 21.1612C129.919 21.6079 131.353 22.4346 132.526 23.5679C133.532 24.5305 134.695 25.3307 135.526 26.4621C136.192 27.3239 136.778 28.2446 137.277 29.2127C137.545 29.7753 137.427 30.5317 138.264 30.7004C139.021 32.0569 139.902 33.3322 140.546 34.7575C140.934 35.6139 141.215 36.5078 141.534 37.3892C141.688 37.8288 141.762 38.2925 141.752 38.7582C141.721 41.5275 141.915 44.303 141.721 47.0785C141.721 47.3973 141.452 47.6474 141.596 48.0287C141.637 48.1785 141.736 48.306 141.871 48.3833C142.005 48.4606 142.165 48.4815 142.315 48.4413C143.38 48.1963 144.476 48.112 145.566 48.1912C147.266 48.1912 148.973 48.2475 150.673 48.2475C152.041 48.2781 153.388 48.5909 154.63 49.1664C156.166 49.8664 157.648 50.6814 159.062 51.6044C159.312 51.7606 159.531 51.8794 159.543 52.2295C159.544 52.2955 159.561 52.3604 159.593 52.4179C159.626 52.4755 159.672 52.5238 159.729 52.5582C159.785 52.5927 159.849 52.6121 159.915 52.6148C159.981 52.6174 160.047 52.6031 160.106 52.5733C160.246 52.5239 160.397 52.5123 160.543 52.5397C160.689 52.5672 160.825 52.6327 160.937 52.7296C162.788 53.778 164.44 55.1427 165.82 56.7616C166.788 57.9743 167.882 59.0745 168.464 60.5123C168.737 61.1435 168.958 61.7958 169.126 62.4626C169.458 63.9129 170.12 65.2882 170.264 66.7822C170.477 69.0076 170.889 71.233 170.602 73.471C170.454 75.0993 170.031 76.6909 169.351 78.1781C168.647 79.6156 167.628 80.8761 166.37 81.8663C165.194 82.7852 164.175 83.8854 163.006 84.8106C160.548 86.9022 157.874 88.7274 155.03 90.2554C153.964 90.7476 152.84 91.1046 151.686 91.3181C149.387 91.7412 147.15 92.451 145.028 93.431C144.61 93.6083 144.174 93.7403 143.728 93.8248C143.351 93.8956 143.001 94.0686 142.715 94.3249C142.384 94.6374 141.859 94.5562 141.415 94.5499C140.971 94.5437 140.515 94.4687 140.065 94.4374C139.615 94.4061 139.665 94.75 139.633 95.0625C139.602 95.3751 139.721 95.5689 140.077 95.5689C140.778 95.4605 141.489 95.4332 142.196 95.4876C142.44 95.5438 142.684 95.5313 142.821 95.8064C142.944 95.9585 143.121 96.057 143.315 96.0815C144.566 96.2565 145.603 96.8941 146.735 97.3317C148.348 97.9058 150 98.3633 151.679 98.7007C153.315 99.0157 154.881 99.619 156.305 100.482C157.118 100.995 158.006 101.389 158.806 101.939C159.893 102.701 160.875 103.608 161.969 104.358C163.594 105.477 164.926 106.927 166.457 108.146C167.769 109.149 168.805 110.467 169.47 111.978C170.494 114.309 170.903 116.864 170.658 119.398C170.495 120.974 170.539 122.58 170.114 124.124C169.72 125.543 169.283 126.95 168.864 128.363C168.417 129.931 167.59 131.365 166.457 132.538C165.494 133.545 164.688 134.707 163.557 135.533C162.697 136.2 161.779 136.788 160.812 137.289C160.243 137.558 159.487 137.439 159.318 138.277C158.018 139.008 156.787 139.846 155.43 140.49C154.518 140.892 153.585 141.244 152.636 141.546C152.193 141.686 151.731 141.76 151.267 141.765C149.604 141.834 147.941 141.765 146.266 141.765C145.172 141.765 144.084 141.765 142.99 141.721C142.653 141.721 142.365 141.434 141.984 141.59C141.839 141.637 141.717 141.736 141.64 141.867C141.563 141.998 141.536 142.153 141.565 142.303C141.815 143.367 141.901 144.463 141.821 145.553C141.821 147.26 141.759 148.96 141.765 150.66C141.727 152.026 141.412 153.37 140.84 154.611C140.147 156.171 139.326 157.67 138.383 159.093C138.302 159.218 138.227 159.406 138.152 159.406ZM146.941 164.969C146.377 165.46 145.643 165.709 144.897 165.663C143.19 165.77 141.921 164.707 140.521 163.982C139.583 163.488 139.321 162.413 138.764 161.6C138.696 161.5 138.658 161.387 138.589 161.294C138.437 161.108 138.353 160.875 138.353 160.634C138.353 160.394 138.437 160.16 138.589 159.975C139.557 158.568 140.41 157.086 141.14 155.543C141.44 154.811 141.765 154.074 142.046 153.286C143.578 154.992 145.397 156.412 146.372 158.474C146.732 159.423 147.252 160.302 147.91 161.075C148.063 161.284 148.134 161.542 148.11 161.8C148.137 162.386 148.045 162.971 147.837 163.519C147.63 164.067 147.312 164.567 146.903 164.988L146.941 164.969ZM154.18 163.263C153.072 163.416 151.944 163.289 150.898 162.894C150.299 162.591 149.789 162.139 149.416 161.581C148.166 159.868 146.966 158.124 145.816 156.343C145.078 155.199 143.94 154.386 143.034 153.392C142.799 153.149 142.625 152.853 142.528 152.53C141.971 150.767 142.784 148.991 142.409 147.216C143.08 147.994 143.796 148.733 144.553 149.429C146.678 151.336 148.479 153.555 150.485 155.568C151.44 156.383 152.351 157.247 153.217 158.156C154.111 159.262 155.093 160.393 155.261 161.906C155.38 162.85 155.13 163.238 154.161 163.282L154.18 163.263ZM154.805 158.806C154.392 158.312 153.917 157.862 153.473 157.393C153.336 157.343 153.217 157.274 153.205 157.112C152.116 156.207 151.101 155.218 150.167 154.155C150.102 154.15 150.042 154.122 149.997 154.076C149.952 154.03 149.926 153.969 149.923 153.905C148.939 152.999 148.033 152.012 147.216 150.954C146.978 150.842 146.66 150.829 146.635 150.467C145.96 149.893 145.333 149.266 144.759 148.591C144.597 148.591 144.541 148.51 144.541 148.366C143.92 147.814 143.374 147.183 142.915 146.491C142.159 145.478 142.628 144.309 142.465 143.222C142.353 142.409 142.465 142.378 143.259 142.415C143.925 142.475 144.594 142.475 145.259 142.415C145.863 142.417 146.442 142.654 146.872 143.078C147.842 143.833 148.746 144.669 149.573 145.578C149.942 145.884 150.272 146.235 150.554 146.622C150.735 146.735 150.898 146.853 150.91 147.091C152.015 147.943 153.046 148.886 153.992 149.91C154.058 149.912 154.12 149.937 154.168 149.983C154.215 150.028 154.244 150.089 154.249 150.154C155.31 151.088 156.296 152.104 157.199 153.192C157.368 153.192 157.43 153.323 157.48 153.461C158.106 154.042 158.693 154.63 159.312 155.211C160.281 156.118 160.362 157.299 160.375 158.512C160.375 158.693 160.175 158.699 160.118 158.799C159.83 159.338 159.397 159.786 158.868 160.093C158.718 160.187 158.624 160.325 158.399 160.337C157.715 160.409 157.023 160.307 156.388 160.043C155.753 159.779 155.193 159.36 154.761 158.824L154.805 158.806Z" fill="url(#paint0_linear)"/>
<defs>
<linearGradient id="paint0_linear" x1="1744.27" y1="30159.9" x2="58563.5" y2="30159.9" gradientUnits="userSpaceOnUse">
<stop stop-color="#AF7500"/>
<stop offset="0.31" stop-color="#DAD9D7"/>
<stop offset="0.65" stop-color="#DEDDDB"/>
<stop offset="1" stop-color="#DAD9D7"/>
</linearGradient>
</defs>
</svg>
