<svg width="200" height="200" viewBox="0 0 200 200" fill="none" xmlns="http://www.w3.org/2000/svg">
<path d="M174.592 100.031C176.907 100.939 178.67 102.453 180.561 103.772C183.144 105.582 185.015 108.011 186.717 110.595C187.672 112.108 188.432 113.736 188.978 115.44C189.732 117.633 190.479 119.834 191.098 122.068C191.986 125.257 192.733 128.487 193.473 131.717C194.033 134.364 194.814 136.959 195.808 139.475C196.438 140.985 197.308 142.382 198.385 143.613C198.863 144.172 199.341 144.73 199.805 145.309C200.007 145.558 200.155 145.867 199.886 146.157C199.617 146.446 199.374 146.258 199.098 146.123C198.426 145.814 197.786 145.551 197.12 145.269C195.102 144.434 193.083 144.818 191.105 145.188C187.902 145.854 184.786 146.886 181.819 148.263C177.977 149.938 174.02 151.271 170.043 152.569C167.179 153.5 164.148 153.808 161.155 153.471C159.249 153.207 157.374 152.756 155.556 152.125C154.17 151.695 152.69 151.627 151.337 151.049C151.25 151.008 151.095 150.934 151.048 151.049C151.015 151.172 151.015 151.302 151.048 151.425C151.815 154.386 152.67 157.333 153.322 160.321C153.863 162.902 153.784 165.575 153.094 168.12C152.475 170.502 151.674 172.83 150.887 175.178C149.904 178.098 148.592 180.898 147.448 183.764C146.27 186.621 145.412 189.6 144.891 192.646C144.583 194.857 145.011 197.108 146.109 199.052C146.264 199.348 146.452 199.631 146.109 199.886C145.766 200.142 145.504 199.954 145.255 199.752C144.494 199.126 143.761 198.466 142.987 197.868C141.266 196.582 139.336 195.606 137.281 194.981C133.674 193.81 129.96 193.11 126.293 192.202C123.473 191.529 120.661 190.762 117.909 189.84C115.55 189.166 113.274 188.234 111.119 187.061C109.666 186.136 108.273 185.12 106.948 184.02C104.841 182.371 103.502 180.11 101.914 178.045C101.137 176.996 100.497 175.852 100.01 174.64C99.6535 175.367 99.3709 176.019 99.0143 176.658C98.2472 178.004 97.2244 179.168 96.3228 180.44C94.4993 183.132 91.9894 185.056 89.3181 186.792C87.8192 187.729 86.21 188.477 84.5272 189.019C82.3336 189.773 80.14 190.52 77.8993 191.139C74.8176 191.993 71.7021 192.727 68.58 193.433C65.8129 193.995 63.0983 194.79 60.465 195.809C58.9542 196.44 57.5599 197.32 56.3403 198.413C55.8087 198.89 55.2569 199.341 54.6985 199.758C54.4428 199.96 54.1332 200.115 53.8439 199.846C53.5546 199.577 53.7362 199.341 53.8439 199.059C54.1534 198.386 54.4226 197.747 54.6985 197.087C55.5396 195.068 55.156 193.05 54.7859 191.072C54.1154 187.846 53.0768 184.708 51.6907 181.719C50.0152 177.897 48.7031 173.96 47.4044 170.004C46.4681 167.142 46.1583 164.113 46.4961 161.122C46.7884 159.185 47.266 157.281 47.9226 155.436C48.3397 154.09 48.407 152.61 48.979 151.284C49.0194 151.19 49.0934 151.042 48.979 150.988C48.8559 150.952 48.7252 150.952 48.6022 150.988C45.6415 151.755 42.701 152.61 39.7134 153.262C37.1319 153.798 34.4605 153.72 31.9148 153.034C29.526 152.421 27.2046 151.614 24.8495 150.827C21.9292 149.844 19.13 148.532 16.2703 147.388C13.4129 146.211 10.4341 145.354 7.38829 144.831C5.17505 144.523 2.92184 144.951 0.975748 146.049C0.679681 146.204 0.397072 146.392 0.141378 146.049C-0.114317 145.706 0.0673608 145.437 0.269225 145.188C0.895003 144.428 1.55442 143.694 2.16002 142.92C3.43313 141.216 4.40074 139.303 5.01975 137.268C6.19729 133.668 6.89709 129.947 7.79875 126.28C8.47163 123.461 9.24544 120.655 10.1673 117.896C10.8434 115.536 11.7752 113.257 12.9463 111.1C13.8737 109.646 14.8894 108.251 15.9877 106.921C17.6362 104.815 19.8971 103.483 21.9561 101.888C22.9808 101.151 24.0817 100.526 25.2398 100.024C24.9939 99.7592 24.6757 99.5721 24.3247 99.4859C22.5214 98.6381 21.0612 97.299 19.4396 96.1888C16.8086 94.3989 14.9582 91.9227 13.2423 89.3187C12.2993 87.8238 11.553 86.2136 11.0218 84.5278C10.2682 82.3342 9.52132 80.1406 8.90227 77.8999C8.07463 74.8451 7.31427 71.7296 6.60775 68.6344C6.04051 65.846 5.23688 63.1109 4.20557 60.4589C3.58227 58.9688 2.71846 57.5913 1.64863 56.3812C1.16415 55.8497 0.672952 55.2643 0.228852 54.6923C7.28285e-05 54.4366 -0.121046 54.1271 0.148106 53.831C0.417258 53.535 0.659495 53.7368 0.935375 53.831C1.60826 54.1405 2.28113 54.4097 2.91364 54.6856C4.93228 55.5267 6.95092 55.1364 8.92918 54.7731C12.1312 54.104 15.2465 53.0724 18.2149 51.698C22.0571 50.0225 26.0136 48.6902 29.9903 47.3916C32.8539 46.4553 35.8853 46.1455 38.8791 46.4832C40.7842 46.7503 42.659 47.201 44.4774 47.8289C45.8635 48.2596 47.3439 48.3269 48.6964 48.9055C48.7838 48.9459 48.9386 49.0132 48.9857 48.9055C49.0182 48.7798 49.0182 48.6478 48.9857 48.522C48.2186 45.5613 47.3641 42.6209 46.7114 39.6333C46.1732 37.0522 46.2493 34.3808 46.9334 31.8346C47.5525 29.4459 48.3599 27.1244 49.1472 24.7761C50.1296 21.8491 51.4417 19.0499 52.5856 16.1901C53.7627 13.3327 54.6202 10.354 55.1426 7.30813C55.4483 5.09416 55.018 2.84106 53.9179 0.895587C53.7699 0.59952 53.5815 0.316911 53.9179 0.0612165C54.2544 -0.194478 54.5235 0.000657365 54.7725 0.202521C55.5328 0.82157 56.2663 1.48099 57.0401 2.08658C58.7586 3.37357 60.69 4.34839 62.7461 4.96651C66.346 6.14405 70.067 6.84384 73.7342 7.75223C76.5536 8.42511 79.3662 9.19219 82.1183 10.114C84.4803 10.7901 86.7614 11.7219 88.9211 12.893C90.3716 13.8245 91.7647 14.8424 93.093 15.9412C95.1991 17.5897 96.5247 19.8573 98.1261 21.9096C98.8476 22.9846 99.4929 24.1088 100.057 25.274C101.168 22.5421 103.004 20.3687 104.767 18.1684C106.528 16.0723 108.65 14.3084 111.032 12.9603C113.007 11.8681 115.097 10.9971 117.263 10.363C119.059 9.76414 120.863 9.15855 122.693 8.67408C125.741 7.86662 128.816 7.14664 131.891 6.43339C134.513 5.87887 137.085 5.11148 139.582 4.13887C141.094 3.50851 142.488 2.62819 143.707 1.53482C144.239 1.06381 144.79 0.606249 145.349 0.189064C145.604 -0.0128002 145.914 -0.167563 146.203 0.0881317C146.493 0.343826 146.324 0.592791 146.203 0.875401C145.894 1.54828 145.625 2.18752 145.349 2.84694C144.508 4.86558 144.891 6.88422 145.255 8.86248C145.925 12.0893 146.965 15.2278 148.357 18.2155C150.025 22.0375 151.344 25.9738 152.636 29.9303C153.572 32.7941 153.884 35.8248 153.551 38.8191C153.243 40.7447 152.748 42.6356 152.071 44.4645C151.647 45.8507 151.58 47.331 150.994 48.6768C150.961 48.771 150.887 48.8921 150.994 48.9863C151.102 49.0805 151.25 48.9863 151.371 48.9863C154.352 48.2058 157.306 47.2974 160.327 46.6918C162.892 46.186 165.537 46.2688 168.065 46.934C170.447 47.5531 172.775 48.3538 175.124 49.1411C178.051 50.1235 180.843 51.4356 183.71 52.5795C186.566 53.7604 189.545 54.6181 192.592 55.1364C194.782 55.4484 197.013 55.0323 198.944 53.9521C199.233 53.8041 199.549 53.535 199.839 53.8983C200.128 54.2617 199.839 54.5712 199.637 54.8605C199.045 55.5872 198.412 56.2803 197.833 57.0205C196.543 58.7378 195.566 60.6695 194.947 62.7265C193.789 66.2726 193.117 69.9801 192.215 73.6137C191.508 76.46 190.768 79.2861 189.84 82.065C189.162 84.4265 188.23 86.7075 187.061 88.8679C186.122 90.3389 185.093 91.7502 183.979 93.0936C182.337 95.1728 180.09 96.4916 178.057 98.0796C176.964 98.8335 175.804 99.4866 174.592 100.031ZM101.921 60.1965C101.874 60.1426 101.84 60.035 101.739 60.109C101.639 60.183 101.739 60.2503 101.739 60.3176C102.002 61.1923 102.217 62.0805 102.533 62.9284C103.348 65.1287 103.004 67.2886 102.372 69.4351C102.086 70.2365 101.749 71.0187 101.363 71.7767L101.443 71.9786C102.547 71.1509 103.798 71.2586 105.016 71.2586C107.445 71.2586 109.881 71.0635 112.216 72.1199C114.207 72.9154 115.839 74.411 116.805 76.3254C117.302 77.2007 117.712 78.1225 118.03 79.0775C119.167 76.3859 121.044 74.697 124.126 74.3673C123.352 73.8559 122.733 73.4387 122.108 73.0215C119.519 71.3618 116.922 69.7065 114.316 68.0557C112.721 67.0396 111.106 66.0371 109.538 64.9739C108.192 64.0386 106.672 63.3725 105.339 62.3833C104.296 61.6095 103.085 60.9366 101.935 60.1965H101.921ZM60.317 98.2411C61.1917 97.9787 62.0799 97.7633 62.9278 97.4471C65.1281 96.6262 67.288 96.9693 69.4278 97.6018C70.2326 97.8928 71.019 98.2321 71.7829 98.6179L71.978 98.5371C71.1638 97.4404 71.258 96.1888 71.2648 94.9709C71.2648 92.5687 71.0629 90.1598 72.0924 87.8384C72.8826 85.7924 74.4056 84.1135 76.3652 83.1282C77.2509 82.6219 78.2018 82.2393 79.1913 81.991C77.9532 81.1499 76.6276 80.7866 75.8269 79.5687C75.0055 78.4808 74.4961 77.1898 74.3533 75.8342L73.0075 77.8528C71.3522 80.4412 69.6992 83.0362 68.0484 85.638C67.0054 87.2731 66.0297 88.9553 64.906 90.5299C63.9707 91.8353 63.3719 93.329 62.3895 94.5671C61.5618 95.6438 60.9024 96.8482 60.1622 97.9921C60.1084 98.0459 60.0007 98.0796 60.0748 98.1738C60.1488 98.268 60.2497 98.2411 60.317 98.2411ZM101.935 139.818C103.119 139.058 104.296 138.277 105.494 137.544C105.79 137.362 105.804 136.871 106.207 136.871C106.608 136.829 106.987 136.665 107.291 136.4C108.502 135.633 109.693 134.852 110.897 134.085C112.458 133.09 114.026 132.114 115.608 131.118C117.357 130.001 119.1 128.871 120.849 127.754L124.167 125.668C121.145 125.284 119.221 123.649 118.111 120.917C117.804 121.805 117.431 122.669 116.994 123.501C115.735 126.3 113.387 127.659 110.595 128.467C109.414 128.749 108.198 128.844 106.988 128.749C105.218 128.689 103.395 129.046 101.706 128.184C101.645 128.184 101.544 128.184 101.423 128.184C102.096 129.725 102.937 131.172 102.951 132.894C102.951 133.83 103.294 134.758 103.011 135.7C102.621 137.046 102.224 138.345 101.827 139.67C101.787 139.731 101.706 139.805 101.827 139.872C101.948 139.939 101.888 139.859 101.935 139.798V139.818ZM60.317 101.801C60.2497 101.76 60.1757 101.679 60.1084 101.801C60.0411 101.922 60.1084 101.935 60.1959 101.982C60.963 103.167 61.7368 104.337 62.4769 105.542C62.6519 105.831 63.1498 105.851 63.1498 106.248C63.1959 106.651 63.3624 107.031 63.6276 107.338C64.3475 108.482 65.0944 109.613 65.8279 110.757C67.066 112.708 68.2973 114.673 69.5422 116.624C70.787 118.576 71.9847 120.359 73.1219 122.283C73.492 122.916 73.9361 123.508 74.3735 124.147C74.7503 121.159 76.3921 119.242 79.124 118.091C78.2458 117.797 77.3929 117.433 76.5738 117.001C73.7477 115.736 72.3683 113.381 71.5608 110.562C71.2811 109.383 71.188 108.169 71.2849 106.962C71.3388 105.192 70.9956 103.368 71.8434 101.679C71.8434 101.619 71.8434 101.525 71.8434 101.417C70.3025 102.09 68.8558 102.931 67.1333 102.938C66.198 102.938 65.2694 103.281 64.3274 102.998L60.317 101.801ZM139.717 98.2411C139.784 98.2747 139.851 98.3555 139.925 98.2411C139.999 98.1267 139.892 98.1132 139.831 98.0594C138.889 96.3436 137.671 94.8027 136.669 93.1137C135.457 91.0951 134.139 89.0765 132.847 87.0578C131.656 85.2007 130.438 83.3503 129.247 81.4931C128.056 79.636 126.905 77.7654 125.613 75.7131C125.411 78.9294 123.595 80.7597 120.943 81.9439C121.868 82.2282 122.759 82.6117 123.601 83.0878C126.824 84.622 128.224 87.401 128.695 90.7183C128.867 92.6384 128.88 94.5693 128.735 96.4916C128.726 97.0768 128.554 97.6477 128.237 98.1402C128.15 98.2815 128.029 98.4026 128.163 98.5439C128.298 98.6852 128.453 98.5439 128.581 98.4564C129.973 97.7835 131.346 97.1106 132.948 97.1106C133.876 97.1106 134.805 96.7742 135.747 97.0501L139.717 98.2411ZM139.717 101.801C138.802 102.076 137.893 102.379 136.971 102.622C136.201 102.931 135.379 103.093 134.549 103.099C132.638 102.904 130.72 102.749 128.998 101.754C128.756 101.619 128.426 101.242 128.184 101.471C127.941 101.7 128.372 101.996 128.48 102.258C128.743 103.13 128.838 104.043 128.762 104.95C128.762 107.399 128.971 109.855 127.914 112.217C127.125 114.211 125.634 115.848 123.722 116.819C122.842 117.314 121.916 117.722 120.957 118.037C123.648 119.208 125.391 121.052 125.613 124.174C126.125 123.4 126.562 122.761 126.959 122.108L131.884 114.343C132.907 112.748 133.903 111.133 134.973 109.566C135.902 108.22 136.574 106.699 137.557 105.367C138.371 104.277 139.044 103.086 139.777 101.935C139.838 101.888 139.946 101.854 139.872 101.754C139.798 101.653 139.75 101.74 139.683 101.78L139.717 101.801ZM98.0992 60.2166C96.9149 60.977 95.7374 61.7575 94.5396 62.491C94.2436 62.6727 94.2301 63.1639 93.8668 63.1639C93.4628 63.2066 93.0819 63.3735 92.7767 63.6416C91.256 64.5971 89.742 65.5728 88.228 66.535L80.9475 71.1711C79.4268 72.1468 77.9128 73.1359 76.3921 74.1049C76.2508 74.1991 75.9749 74.1856 76.0153 74.401C76.0556 74.6163 76.2979 74.5557 76.4796 74.5692C77.4969 74.6543 78.4742 75.004 79.3146 75.5836C80.1551 76.1631 80.8293 76.9524 81.2705 77.873C81.4494 78.3432 81.7296 78.7682 82.0914 79.1178C82.3208 78.2092 82.6716 77.3355 83.1343 76.5205C84.6483 73.2907 87.4206 71.8642 90.7312 71.3797C92.6955 71.1946 94.6723 71.1811 96.639 71.3393C97.178 71.3643 97.7025 71.5215 98.1665 71.7969C98.3145 71.8777 98.4424 72.0795 98.6173 71.9046C98.7923 71.7296 98.6173 71.622 98.5298 71.4874C97.8569 70.0945 97.1841 68.7286 97.1841 67.1271C97.1841 66.1918 96.8476 65.2632 97.1302 64.3212C97.5205 62.9755 97.9175 61.6768 98.3145 60.358C98.3482 60.2907 98.4289 60.2167 98.3145 60.1494C98.2001 60.0821 98.1126 60.1426 98.0655 60.1965L98.0992 60.2166ZM98.0992 139.818C98.1463 139.879 98.1799 139.98 98.2809 139.906C98.3818 139.832 98.2809 139.764 98.2809 139.704C98.0386 138.87 97.8435 138.022 97.5474 137.208C96.6256 134.738 96.9688 132.343 97.9041 129.974C98.1396 129.375 98.4154 128.783 98.6711 128.191C97.4801 128.864 96.2353 128.763 95.0107 128.756C92.5816 128.756 90.1458 128.951 87.8109 127.902C85.8193 127.108 84.1854 125.615 83.2151 123.703C82.7183 122.816 82.3039 121.886 81.977 120.924C81.5378 122.199 80.741 123.322 79.6815 124.157C78.622 124.992 77.3447 125.505 76.0018 125.634C76.0826 125.923 76.345 125.876 76.5065 125.977C79.0567 127.619 81.6204 129.241 84.1773 130.876C86.5526 132.403 88.9413 133.91 91.2896 135.465C92.5883 136.326 93.9812 136.972 95.2462 137.948C96.1525 138.614 97.0936 139.232 98.0655 139.798L98.0992 139.818ZM197.907 55.5132C197.622 55.4908 197.336 55.554 197.086 55.6949C196.223 55.9987 195.31 56.1357 194.395 56.0986C190.654 55.9708 187.135 54.8673 183.689 53.5148C181.503 52.6602 179.343 51.7182 177.169 50.8232C174.478 49.713 171.672 49.0267 168.94 48.0779C166.628 47.348 164.188 47.1186 161.781 47.405C160.001 47.5962 158.249 47.9913 156.559 48.5826C154.924 49.1141 153.195 49.2554 151.566 49.8476C150.802 50.0508 150.129 50.506 149.655 51.1395C149.5 51.3817 149.467 51.5298 149.655 51.7653C150.731 53.053 151.611 54.4928 152.266 56.0381C153.312 58.5323 153.814 61.2207 153.74 63.9242C153.762 65.5367 153.548 67.1438 153.107 68.6949C153.033 68.9439 153.013 69.1861 153.376 69.1121C154.298 68.9103 155.24 69.0112 156.169 68.8833C158.219 68.5314 160.303 68.4207 162.379 68.5536C163.22 68.6411 163.247 68.6411 163.12 67.8C162.561 64.4753 163.174 61.0597 164.856 58.1375C165.474 57.1285 165.994 56.0628 166.41 54.9547C166.619 54.3357 166.854 53.7301 167.049 53.1178C167.101 52.956 167.202 52.8145 167.339 52.7132C167.475 52.6118 167.64 52.5557 167.81 52.5526C168.18 52.5122 168.247 52.8419 168.361 53.1245C168.556 53.6224 168.846 54.0867 169.034 54.5981C169.498 56.1323 169.936 57.6866 170.38 59.241C170.705 60.6695 170.605 62.1621 170.091 63.5339C169.547 64.934 168.816 66.2538 167.917 67.4568C167.578 67.8473 167.287 68.2764 167.049 68.7353C169.59 68.6508 172.091 69.3869 174.182 70.8347C175.965 71.9988 177.654 73.3243 179.504 74.3875C180.904 75.195 182.303 75.9957 184.012 75.8813C184.074 75.8686 184.138 75.8685 184.201 75.881C184.263 75.8936 184.321 75.9186 184.374 75.9544C184.426 75.9902 184.47 76.0363 184.504 76.0897C184.538 76.1431 184.561 76.2028 184.572 76.2653C184.582 76.3277 184.58 76.3917 184.565 76.4532C184.55 76.5148 184.523 76.5727 184.485 76.6235C184.447 76.6744 184.4 76.7171 184.345 76.7491C184.291 76.7811 184.23 76.8018 184.167 76.8099C183.461 77.0252 182.747 77.2069 182.034 77.4222C180.5 77.8797 178.993 78.4853 177.324 78.4517C176.187 78.4517 175.056 78.3508 173.926 78.344C173.075 78.3354 172.231 78.1853 171.43 77.8999C169.061 77.079 167.224 75.4843 165.441 73.8155C164.896 73.3042 164.371 72.7726 163.799 72.2074C163.736 72.369 163.687 72.5356 163.651 72.7053C163.651 73.0417 163.611 73.3782 163.604 73.7146C163.546 75.9925 163.198 78.2537 162.568 80.4434C162.256 81.4485 161.86 82.4254 161.384 83.3637C161.303 83.5319 161.054 83.7607 161.451 83.8886C161.989 84.098 162.54 84.2755 163.099 84.4201C164.631 84.7572 166.062 85.4486 167.278 86.4388C169.081 87.8316 170.272 89.7022 171.551 91.519C172.875 93.3538 173.743 95.4785 174.081 97.7162C174.148 98.2074 173.805 99.0082 174.424 99.136C174.868 99.2302 175.447 98.7323 175.958 98.4631L176.019 98.4228C177.533 97.5951 178.804 96.4041 180.231 95.4554C180.942 94.9898 181.599 94.4459 182.189 93.8337C183.426 92.5204 184.564 91.117 185.594 89.6349C186.223 88.7659 186.766 87.8374 187.215 86.8627C187.989 85.0392 188.682 83.1686 189.274 81.2778C190.082 78.6805 190.829 76.063 191.454 73.4185C192.262 69.9599 192.982 66.4879 193.998 63.0831C194.646 60.8478 195.648 58.7307 196.965 56.8119C197.248 56.3947 197.571 55.9775 197.907 55.5132ZM197.867 144.508C197.757 144.256 197.599 144.028 197.403 143.835C196.232 142.305 195.287 140.615 194.597 138.816C193.601 135.854 192.779 132.837 192.134 129.779C191.73 128.083 191.394 126.374 190.95 124.692C190.331 122.344 189.698 119.982 188.931 117.707C188.364 115.919 187.674 114.172 186.865 112.479C186.387 111.597 185.854 110.746 185.271 109.929C184.272 108.486 183.146 107.134 181.906 105.892C180.936 105.027 179.906 104.231 178.825 103.51C177.667 102.564 176.413 101.743 175.083 101.06C174.336 100.704 174.215 100.764 174.148 101.572C174.046 103.502 173.483 105.381 172.506 107.049C171.874 108.072 171.16 109.068 170.528 110.077C169.317 111.896 167.732 113.435 165.878 114.592C164.613 115.413 163.106 115.548 161.733 116.066C161.235 116.261 161.235 116.395 161.451 116.792C162.338 118.474 162.932 120.294 163.207 122.175C163.497 123.69 163.644 125.229 163.644 126.771C163.616 126.957 163.625 127.147 163.672 127.33C163.718 127.512 163.8 127.684 163.914 127.834C164.867 126.757 165.902 125.753 167.009 124.833C169.161 122.864 171.934 121.707 174.848 121.563C178.084 121.348 181.032 122.297 184.026 123.165C184.322 123.252 184.618 123.393 184.557 123.757C184.497 124.12 184.201 124.167 183.885 124.133C183.167 124.096 182.451 124.225 181.792 124.51C180.04 125.24 178.392 126.199 176.893 127.363C176.503 127.646 176.072 127.875 175.675 128.164C174.036 129.492 172.135 130.462 170.097 131.01C169.07 131.221 168.023 131.32 166.975 131.306C167.686 132.212 168.344 133.158 168.947 134.139C170.144 136.124 170.965 138.224 170.387 140.579C169.869 142.678 169.485 144.831 168.462 146.776C168.314 147.065 168.328 147.503 167.87 147.449C167.682 147.435 167.503 147.363 167.358 147.242C167.213 147.121 167.11 146.958 167.063 146.776C166.551 145.43 166.255 143.963 165.434 142.739C164.463 141.233 163.751 139.575 163.328 137.833C162.92 135.9 162.882 133.907 163.214 131.959C163.274 131.475 163.214 131.286 162.682 131.407C161.867 131.563 161.034 131.608 160.206 131.542C157.985 131.353 155.772 131.131 153.551 130.916C153.215 130.882 153.033 130.916 153.154 131.34C154.251 135.727 153.871 140.353 152.071 144.502C151.491 145.829 150.7 147.053 149.729 148.128C149.426 148.445 149.5 148.687 149.729 148.983C150.208 149.551 150.845 149.963 151.559 150.167C152.993 150.692 154.527 150.84 155.98 151.277C158.45 152.011 160.912 152.717 163.523 152.704C164.822 152.744 166.122 152.626 167.392 152.354C169.411 151.849 171.369 151.109 173.367 150.524C178.078 149.178 182.357 146.729 187.047 145.322C190.593 144.259 194.106 143.324 197.867 144.508ZM144.42 2.12023C144.225 2.26826 144.037 2.42302 143.842 2.56433C142.321 3.74915 140.631 4.69949 138.829 5.38369C135.848 6.39028 132.81 7.21717 129.731 7.85989C128.036 8.25689 126.326 8.60679 124.638 9.05089C122.296 9.66321 119.927 10.2957 117.66 11.1032C115.87 11.6671 114.123 12.3574 112.432 13.1689C111.571 13.6406 110.738 14.1595 109.935 14.7233C108.448 15.6633 107.091 16.7944 105.898 18.0877C104.018 20.205 102.362 22.5119 100.959 24.9712C100.555 25.6912 100.609 25.7989 101.443 25.8594C103.425 25.9679 105.35 26.5617 107.048 27.5887C108.058 28.201 109.02 28.8874 110.016 29.5333C111.833 30.7425 113.374 32.3225 114.538 34.1695C115.359 35.421 115.486 36.9014 116.005 38.2471C116.2 38.7585 116.294 38.8662 116.792 38.6038C119.247 37.4116 121.913 36.7121 124.638 36.5448C125.532 36.4505 126.434 36.5448 127.329 36.39C127.464 36.39 127.692 36.39 127.713 36.2083C127.705 36.1331 127.682 36.0604 127.643 35.9953C127.605 35.9302 127.553 35.8743 127.491 35.8315C126.69 35.1794 125.962 34.4441 125.317 33.6379C123.09 31.4139 121.748 28.4552 121.542 25.3144C121.34 22.0375 122.256 19.0431 123.157 16.0085C123.251 15.7057 123.413 15.4298 123.77 15.524C124.126 15.6182 124.14 15.8672 124.119 16.1969C124.098 17.25 124.356 18.29 124.866 19.2114C125.572 20.6315 126.407 21.9831 127.363 23.2486C127.652 23.6389 127.881 24.0696 128.17 24.4666C129.671 26.4852 130.942 28.6384 131.191 31.2357C131.245 31.8413 131.279 32.4469 131.326 33.1265C132.206 32.4172 133.132 31.7676 134.098 31.1819C136.077 29.9707 138.169 29.1633 140.531 29.7217C142.63 30.2264 144.777 30.6167 146.721 31.6395C147.011 31.7942 147.462 31.7606 147.448 32.2114C147.435 32.6622 147.166 32.8843 146.728 33.066C145.248 33.611 143.687 33.9878 142.348 34.8962C140.794 35.8837 139.069 36.5686 137.261 36.9148C135.491 37.3253 133.735 37.0831 131.979 36.9148C131.474 36.8677 131.306 36.9148 131.4 37.48C131.532 38.2554 131.577 39.043 131.535 39.8284C131.366 42.0691 131.124 44.3031 130.902 46.5572C130.868 46.9206 130.902 47.1157 131.353 46.9878C133.188 46.4947 135.087 46.2837 136.985 46.3621C139.659 46.3794 142.297 46.9787 144.716 48.1183C145.943 48.6816 147.078 49.4281 148.081 50.3321C148.136 50.3996 148.205 50.454 148.283 50.4913C148.362 50.5287 148.448 50.5481 148.535 50.5481C148.622 50.5481 148.708 50.5287 148.786 50.4913C148.865 50.454 148.934 50.3996 148.989 50.3321C149.545 49.8413 149.949 49.2015 150.153 48.4884C150.644 47.1426 150.826 45.6488 151.203 44.2627C151.923 41.7663 152.676 39.2901 152.676 36.6524C152.734 35.3339 152.623 34.0134 152.347 32.7228C151.586 29.9303 150.658 27.1917 149.729 24.4531C148.895 21.9702 147.798 19.5815 146.769 17.1725C146.163 15.7528 145.699 14.2859 145.207 12.8257C144.319 10.26 143.877 7.56063 143.902 4.84539C144.01 3.92592 144.183 3.01525 144.42 2.12023ZM68.6876 33.0727C68.709 32.9818 68.7247 32.8896 68.7347 32.7968C68.6808 30.3678 69.3865 27.9825 70.7534 25.9738C71.9578 24.1099 73.3439 22.3604 74.4475 20.4226C75.1876 19.1172 75.9076 17.7983 75.8538 16.2238C75.8538 15.9075 75.8538 15.598 76.2037 15.5173C76.5536 15.4365 76.742 15.7528 76.8362 16.069C76.9914 16.7514 77.1823 17.4253 77.4081 18.0877C78.5722 20.9003 78.552 23.8341 78.2762 26.7813C78.0174 28.8308 77.1448 30.7542 75.773 32.2989C74.8053 33.5905 73.6973 34.7708 72.4692 35.818C72.2068 36.0199 72.1664 36.2756 72.6172 36.3092C73.0681 36.3429 73.5996 36.3631 74.0908 36.39C75.6742 36.4775 77.2488 36.6845 78.801 37.009C80.4046 37.3318 81.9558 37.8753 83.4102 38.6239C83.5583 38.7047 83.7736 38.9133 83.8947 38.5701C84.1164 38.0353 84.2963 37.4841 84.433 36.9216C84.8771 34.4319 86.3978 32.6151 88.1204 30.9127C89.1711 30.0153 90.2967 29.2094 91.4848 28.5038C92.4176 27.779 93.4484 27.19 94.5464 26.7543C95.8885 26.2527 97.2957 25.9468 98.725 25.846C99.122 25.846 99.3036 25.671 99.0614 25.2471C98.8192 24.8232 98.6846 24.406 98.4693 24.0023C97.6416 22.4816 96.4506 21.2165 95.5019 19.7833C95.0251 19.0485 94.4652 18.3711 93.8331 17.7647C92.5501 16.5582 91.1805 15.4472 89.7353 14.4407C88.8293 13.7961 87.8625 13.2417 86.8486 12.7854C85.0472 12.0134 83.2053 11.3396 81.331 10.7667C78.6866 9.94582 76.0355 9.17873 73.3439 8.54623C69.9257 7.75223 66.494 7.03225 63.1296 6.05657C60.5227 5.30246 58.0836 4.0578 55.9433 2.38938C55.8154 2.28845 55.7078 2.1135 55.4319 2.19424C55.8946 3.25456 56.1241 4.40192 56.1048 5.55864C55.9769 9.30658 54.8801 12.819 53.5276 16.2709C52.6529 18.4981 51.7041 20.6984 50.789 22.9122C49.6855 25.6037 49.0059 28.3693 48.0975 31.0742C47.3644 33.3876 47.135 35.831 47.4246 38.2404C47.6777 40.1921 48.1286 42.1129 48.7704 43.9733C49.201 45.4335 49.3491 46.9609 49.8806 48.3942C50.0766 49.1586 50.5188 49.8372 51.1389 50.3253C51.1828 50.3701 51.2351 50.4056 51.2929 50.4299C51.3507 50.4542 51.4127 50.4667 51.4754 50.4667C51.538 50.4667 51.6001 50.4542 51.6578 50.4299C51.7156 50.4056 51.7679 50.3701 51.8118 50.3253C53.0901 49.2708 54.5132 48.4052 56.0375 47.7549C58.0894 46.8835 60.2829 46.3932 62.5106 46.3082C64.5864 46.1602 66.6723 46.3627 68.6809 46.9071C68.9568 46.9811 69.2125 47.008 69.125 46.6043C68.9029 45.6421 68.9971 44.6597 68.8693 43.684C68.533 41.6976 68.4313 39.6786 68.5665 37.6685C68.654 36.8004 68.654 36.7735 67.7725 36.9014C64.8445 37.3594 61.8465 36.9281 59.1664 35.6633C57.7735 34.9904 56.5623 34.008 55.0416 33.5841C54.3687 33.4024 53.7362 33.1198 53.0835 32.9112C52.9366 32.8527 52.809 32.7543 52.715 32.6271C52.6211 32.4998 52.5646 32.3489 52.552 32.1912C52.5293 32.0896 52.5468 31.9832 52.6007 31.8942C52.6546 31.8052 52.7408 31.7405 52.8413 31.7135C53.8372 31.4376 54.6783 30.7849 55.7145 30.5898C56.4845 30.448 57.2425 30.2478 57.9821 29.9909C59.0991 29.581 60.2911 29.4157 61.4775 29.5062C62.6639 29.5968 63.8171 29.941 64.8589 30.5157C66.2053 31.2479 67.4862 32.0944 68.6876 33.0458V33.0727ZM55.5799 197.928C55.7885 197.76 55.9904 197.592 56.2057 197.437C57.714 196.27 59.3847 195.329 61.1648 194.645C64.1461 193.643 67.1838 192.819 70.2622 192.175C71.9578 191.771 73.6669 191.428 75.3491 190.984C77.6975 190.372 80.0593 189.739 82.3336 188.965C84.8165 188.097 87.3196 187.27 89.52 185.749C91.1789 184.697 92.7002 183.443 94.0485 182.015C95.9336 179.952 97.5605 177.668 98.8932 175.212C99.3104 174.371 99.2565 174.263 98.3482 174.182C96.4667 174.059 94.6398 173.499 93.0122 172.547C91.9625 171.908 90.9936 171.201 89.9237 170.529C88.1098 169.33 86.5821 167.748 85.4491 165.892C84.6281 164.648 84.4936 163.167 83.9956 161.808C83.7803 161.229 83.6255 161.25 83.1814 161.492C81.5007 162.378 79.6797 162.968 77.7984 163.235C76.3078 163.517 74.7939 163.659 73.2767 163.658C73.0905 163.626 72.8996 163.633 72.7164 163.68C72.5332 163.726 72.3619 163.811 72.2135 163.928C73.2912 164.881 74.2945 165.916 75.2146 167.023C77.1851 169.175 78.3418 171.948 78.4847 174.862C78.6933 178.092 77.7513 181.039 76.8833 184.04C76.7958 184.336 76.6545 184.632 76.2912 184.565C75.9278 184.498 75.8807 184.215 75.9076 183.892C75.9442 183.154 75.8106 182.417 75.5173 181.739C74.7851 180.013 73.833 178.389 72.6845 176.907C72.3885 176.49 72.1529 176.039 71.8434 175.636C70.7228 174.224 69.8513 172.631 69.2663 170.926C68.8677 169.63 68.6902 168.276 68.7415 166.922C67.8505 167.667 66.9034 168.342 65.9086 168.941C63.9304 170.152 61.831 170.959 59.4759 170.387C57.3967 169.883 55.2704 169.499 53.346 168.483C53.0432 168.328 52.552 168.369 52.5722 167.877C52.5923 167.386 52.9355 167.205 53.3796 167.016C54.7792 166.491 56.2595 166.162 57.5178 165.3C59.0315 164.34 60.7038 163.657 62.4568 163.282C64.3091 162.926 66.2105 162.91 68.0686 163.235C68.6338 163.295 68.6944 163.161 68.6203 162.642C68.494 161.869 68.4511 161.084 68.4925 160.301C68.6607 158.053 68.9029 155.819 69.125 153.572C69.1654 153.161 69.0577 153.04 68.6472 153.175C67.7514 153.455 66.8252 153.627 65.8884 153.686C64.0533 153.831 62.2078 153.777 60.3843 153.525C58.6556 153.27 56.9707 152.777 55.3781 152.058C54.0859 151.506 52.8979 150.737 51.8656 149.784C51.817 149.726 51.7563 149.679 51.6877 149.647C51.6191 149.615 51.5443 149.598 51.4686 149.598C51.3929 149.598 51.3182 149.615 51.2496 149.647C51.181 149.679 51.1203 149.726 51.0716 149.784C50.4803 150.272 50.0529 150.929 49.847 151.668C49.3558 153.013 49.1741 154.501 48.7973 155.893C48.0773 158.39 47.317 160.859 47.3304 163.497C47.2745 164.838 47.3898 166.182 47.6736 167.494C48.3465 169.983 49.1876 172.419 49.9748 174.896C51.3206 179.081 53.4267 182.97 54.7254 187.162C55.4094 189.384 55.8604 191.67 56.0711 193.985C56.1426 195.305 55.9762 196.627 55.5799 197.888V197.928ZM36.1943 72.2141C36.0395 72.3285 35.8982 72.3823 35.8309 72.4832C35.1613 73.2975 34.4105 74.0415 33.5902 74.7037C31.3806 76.9094 28.4486 78.2428 25.334 78.4584C22.0302 78.6737 19.0156 77.7452 15.954 76.8368C15.6782 76.756 15.4225 76.6013 15.483 76.2783C15.5436 75.9553 15.8329 75.8611 16.1559 75.888C16.8941 75.9246 17.6308 75.791 18.3091 75.4977C20.0326 74.7596 21.6577 73.8103 23.1471 72.6717C23.5239 72.4092 23.9277 72.1737 24.2978 71.8978C25.6438 70.8544 27.1297 70.005 28.7118 69.3745C30.1099 68.8777 31.5893 68.6494 33.0721 68.7017C32.3252 67.7327 31.7263 66.8176 31.1006 65.8756C30.0038 64.0992 29.203 62.2016 29.5462 60.0955C29.9362 57.5957 30.6627 55.1602 31.7062 52.8554C31.7289 52.7859 31.7671 52.7224 31.8179 52.6698C31.8686 52.6172 31.9307 52.5768 31.9993 52.5515C32.0679 52.5263 32.1413 52.5169 32.2141 52.524C32.2869 52.5312 32.357 52.5548 32.4194 52.5929C32.554 52.6459 32.6745 52.7294 32.7715 52.8368C32.8684 52.9442 32.939 53.0726 32.9779 53.212C33.5364 54.6452 33.8594 56.1794 34.7408 57.478C35.7103 59.0088 36.3943 60.7027 36.7595 62.4775C37.0892 64.311 37.0892 66.1886 36.7595 68.022C36.6989 68.5805 36.8268 68.6546 37.3449 68.5805C38.1209 68.4542 38.9081 68.4113 39.6932 68.4527C41.9339 68.6209 44.1746 68.8564 46.422 69.0852C46.8325 69.1256 46.9469 69.0246 46.8258 68.6075C46.3344 66.7725 46.1257 64.8733 46.2067 62.9755C46.2286 60.3026 46.8325 57.6666 47.9764 55.2508C48.5438 54.026 49.2898 52.8921 50.1902 51.8864C50.2514 51.8333 50.3006 51.7677 50.3343 51.694C50.3679 51.6203 50.3854 51.5402 50.3854 51.4591C50.3854 51.3781 50.3679 51.298 50.3343 51.2242C50.3006 51.1505 50.2514 51.0849 50.1902 51.0318C49.7346 50.4769 49.1299 50.0637 48.4474 49.8408C46.9132 49.2689 45.2714 49.1074 43.7372 48.6431C42.6203 48.3134 41.5033 48.0173 40.3728 47.7347C37.8394 47.105 35.1933 47.0796 32.6482 47.6607C29.8703 48.3787 27.1304 49.2366 24.4391 50.2311C21.9561 51.0655 19.5674 52.1556 17.1585 53.1918C15.7185 53.8108 14.2315 54.2751 12.7511 54.7731C10.1674 55.6729 7.44586 56.1124 4.71023 56.0717C3.81681 55.9843 2.94018 55.7713 2.10619 55.4392C2.18441 55.7213 2.34068 55.9755 2.55702 56.1726C3.73613 57.7009 4.68801 59.3916 5.38311 61.1923C6.37899 64.1542 7.20129 67.1715 7.84585 70.2291C8.2563 71.9449 8.59947 73.6742 9.0503 75.3834C9.66262 77.7317 10.3019 80.0935 11.0689 82.3611C11.6347 84.1478 12.325 85.8925 13.1347 87.5827C13.6039 88.4472 14.1276 89.281 14.7025 90.079C15.7446 91.5586 16.9203 92.9393 18.2149 94.2038C19.1545 95.0343 20.1505 95.7987 21.1958 96.4916C22.3554 97.4741 23.6407 98.2977 25.0177 98.9409C25.7781 99.2504 25.8185 99.2369 25.8858 98.416C26.0014 96.4871 26.5708 94.6128 27.5478 92.9455C28.1735 91.9227 28.8935 90.9269 29.526 89.9176C30.7289 88.1136 32.3082 86.5917 34.1554 85.4564C35.4205 84.6355 36.9277 84.5009 38.3004 83.976C38.7916 83.7876 38.805 83.6732 38.5897 83.2561C37.0219 80.2348 36.5307 76.9579 36.4096 73.607C36.4521 73.1321 36.3782 72.654 36.1943 72.2141ZM33.0452 131.286C32.877 131.286 32.7962 131.286 32.7088 131.286C30.311 131.326 27.9599 130.621 25.98 129.268C24.1093 128.063 22.3599 126.67 20.422 125.573C19.1166 124.827 17.7977 124.107 16.2299 124.154C15.8868 124.154 15.557 124.154 15.5032 123.75C15.4494 123.346 15.7589 123.265 16.055 123.178L18.0736 122.613C19.5136 122.223 20.8997 121.624 22.4339 121.617C23.5912 121.617 24.7486 121.684 25.8992 121.718C26.8353 121.727 27.765 121.874 28.658 122.155C31.0064 122.969 32.8231 124.557 34.5995 126.192C35.158 126.711 35.7098 127.242 36.2683 127.767C36.3991 127.471 36.4567 127.148 36.4365 126.825C36.4244 125.282 36.5687 123.743 36.8671 122.229C37.1477 120.3 37.7529 118.432 38.657 116.705C38.7512 116.53 39.0405 116.254 38.5763 116.146C38.112 116.039 37.614 115.722 37.1296 115.648C34.8081 115.292 33.0923 113.919 31.437 112.432C30.2595 111.382 29.6135 109.956 28.6782 108.731C27.0206 106.629 26.0587 104.064 25.9261 101.39C25.9261 100.845 25.6502 100.811 25.2532 100.993C23.9911 101.615 22.7941 102.361 21.6803 103.22C19.4161 104.696 17.4109 106.535 15.7455 108.664C14.5164 110.192 13.4855 111.87 12.6771 113.657C11.0042 117.889 9.65453 122.241 8.63985 126.677C7.8122 130.082 7.11914 133.513 6.11655 136.885C5.41886 139.184 4.36047 141.357 2.98093 143.324C2.63691 143.679 2.3508 144.085 2.1331 144.528C2.40998 144.525 2.68205 144.456 2.9271 144.327C3.79101 144.025 4.70439 143.89 5.61862 143.93C9.36656 144.057 12.879 145.161 16.3309 146.513C18.5379 147.381 20.718 148.324 22.9116 149.205C25.5628 150.302 28.3619 150.981 31.0737 151.896C33.3848 152.629 35.8259 152.858 38.2331 152.569C40.0151 152.381 41.7694 151.989 43.4614 151.399C45.0763 150.874 46.8258 150.726 48.4003 150.154C49.1608 149.95 49.8341 149.503 50.318 148.882C50.4795 148.64 50.5535 148.458 50.318 148.209C49.2319 146.929 48.3511 145.487 47.7072 143.936C46.9592 142.169 46.5046 140.292 46.3615 138.378C46.112 135.998 46.3013 133.592 46.92 131.279C46.994 130.997 46.92 130.815 46.6239 130.889C45.655 131.111 44.6726 131.01 43.6969 131.138C41.6712 131.51 39.6039 131.601 37.5535 131.407C36.8806 131.313 36.7662 131.461 36.8806 132.08C37.4814 135.42 36.8807 138.864 35.1849 141.803C34.5501 142.829 34.0182 143.916 33.597 145.047C33.3951 145.666 33.1596 146.271 32.9241 146.884C32.8712 147.026 32.7809 147.153 32.6625 147.248C32.5441 147.344 32.402 147.407 32.2512 147.429C32.2008 147.443 32.1481 147.447 32.0962 147.44C32.0443 147.433 31.9943 147.416 31.9491 147.39C31.9039 147.364 31.8644 147.328 31.8331 147.286C31.8018 147.245 31.7792 147.197 31.7667 147.146C31.4706 146.09 30.7709 145.195 30.6026 144.078C30.4997 143.414 30.3283 142.762 30.0912 142.133C28.9945 139.172 29.5731 136.481 31.2621 133.904C31.7936 133.056 32.406 132.208 33.0452 131.286ZM144.588 197.995C144.373 197.275 144.178 196.778 144.07 196.259C143.66 194.375 143.996 192.505 144.339 190.668C144.95 187.705 145.891 184.821 147.145 182.068C148.661 178.721 149.95 175.275 151.001 171.753C151.485 170.031 152.266 168.389 152.488 166.599C152.811 164.672 152.811 162.705 152.488 160.779C151.869 157.899 151.109 155.046 150.368 152.193C150.205 151.234 149.715 150.362 148.982 149.723C148.929 149.662 148.864 149.613 148.79 149.579C148.716 149.545 148.636 149.528 148.555 149.528C148.474 149.528 148.394 149.545 148.32 149.579C148.246 149.613 148.181 149.662 148.128 149.723C146.772 150.926 145.198 151.858 143.492 152.468C142.238 152.947 140.933 153.277 139.602 153.451C138.396 153.617 137.18 153.701 135.962 153.7C134.396 153.707 132.836 153.498 131.326 153.081C131.09 153.02 130.821 152.96 130.902 153.336C131.097 154.258 131.003 155.2 131.124 156.129C131.508 158.221 131.608 160.355 131.42 162.474C131.326 163.147 131.467 163.221 132.093 163.147C135.447 162.543 138.907 163.148 141.857 164.856C142.863 165.481 143.929 166.004 145.039 166.417C145.658 166.619 146.264 166.861 146.876 167.056C147.038 167.107 147.18 167.207 147.283 167.342C147.385 167.477 147.443 167.641 147.448 167.81C147.489 168.18 147.159 168.254 146.876 168.362C146.378 168.557 145.914 168.853 145.409 169.035C143.868 169.499 142.314 169.943 140.76 170.347C139.399 170.663 137.977 170.581 136.662 170.111C134.825 169.546 133.298 168.416 131.784 167.326C131.636 167.218 131.528 167.003 131.265 167.077C131.359 169.59 130.631 172.065 129.193 174.128C128.009 175.885 126.804 177.621 125.681 179.411C124.819 180.79 124.032 182.237 124.153 183.966C124.163 184.027 124.16 184.09 124.146 184.151C124.131 184.211 124.105 184.268 124.068 184.318C123.995 184.42 123.883 184.488 123.759 184.508C123.635 184.527 123.509 184.497 123.407 184.423C123.306 184.349 123.237 184.238 123.218 184.114C123.002 183.407 122.814 182.694 122.612 181.981C122.188 180.507 121.583 179.074 121.596 177.493C121.596 176.383 121.663 175.272 121.704 174.128C121.714 173.195 121.859 172.268 122.134 171.376C122.949 169.008 124.55 167.164 126.226 165.388C126.737 164.843 127.275 164.325 127.834 163.753C127.666 163.688 127.492 163.639 127.316 163.605C126.979 163.571 126.643 163.564 126.306 163.557C124.028 163.498 121.767 163.148 119.578 162.515C118.572 162.203 117.596 161.807 116.657 161.33C116.489 161.25 116.24 161.014 116.146 161.418C116.052 161.821 115.722 162.38 115.648 162.864C115.285 165.233 113.871 166.962 112.344 168.658C111.281 169.822 109.854 170.461 108.63 171.397C106.53 173.021 103.981 173.96 101.329 174.088C100.71 174.122 100.656 174.364 101.006 174.976C101.679 176.127 102.419 177.23 103.193 178.341C104.643 180.541 106.425 182.505 108.475 184.161C109.896 185.352 111.46 186.36 113.131 187.162C117.107 188.792 121.204 190.108 125.384 191.098C129.328 192.074 133.331 192.821 137.214 194.039C138.715 194.482 140.158 195.101 141.513 195.883C142.573 196.534 143.6 197.24 144.588 197.995ZM127.847 104.492C127.876 103.71 127.739 102.931 127.445 102.206C127.15 101.481 126.705 100.827 126.138 100.287C125.896 100.031 126.044 99.8291 126.252 99.6137C127.105 98.7547 127.643 97.6335 127.78 96.431C127.895 94.7627 127.927 93.0896 127.874 91.4181C127.9 89.3997 127.181 87.4426 125.855 85.9207C123.837 83.7674 121.394 82.2467 118.164 82.9667C117.249 83.1753 116.98 82.8389 117.081 81.9103C117.148 81.3114 117.478 80.726 117.35 80.1339C116.455 75.9284 114.511 73.4051 110.258 72.4025C108.32 71.9382 106.342 72.2477 104.384 72.2208C103.633 72.2082 102.888 72.3492 102.194 72.635C101.499 72.9208 100.871 73.3454 100.347 73.8828C100.057 74.152 99.8689 73.9905 99.6132 73.7684C98.7612 72.9412 97.6627 72.4143 96.4843 72.2679C94.8161 72.1491 93.1428 72.1177 91.4713 72.1737C89.4272 72.1459 87.4459 72.8799 85.9133 74.2327C83.7736 76.2514 82.2529 78.7141 82.9998 81.9372C83.1949 82.8052 82.845 83.0878 81.9703 83.0004C81.3445 82.9331 80.7456 82.5966 80.1198 82.7312C75.8269 83.653 73.391 85.665 72.4019 89.9176C71.9713 91.7882 72.2606 93.6991 72.227 95.5899C72.2109 96.3591 72.3531 97.1234 72.6448 97.8352C72.9365 98.5471 73.3714 99.1914 73.9226 99.7281C74.1716 99.9771 74.0236 100.186 73.815 100.401C72.9639 101.258 72.4259 102.377 72.2875 103.577C72.1687 105.247 72.1373 106.923 72.1933 108.597C72.1681 110.615 72.8867 112.572 74.212 114.094C76.2306 116.241 78.6799 117.768 81.9097 117.041C82.8248 116.839 83.094 117.169 82.9863 118.098C82.9258 118.697 82.596 119.282 82.7239 119.881C83.6188 124.093 85.5702 126.61 89.816 127.612C91.7472 128.077 93.7322 127.76 95.6903 127.787C96.4407 127.802 97.1862 127.663 97.8806 127.378C98.5751 127.094 99.2037 126.669 99.7276 126.132C100.01 125.856 100.205 126.018 100.461 126.24C101.31 127.067 102.407 127.594 103.583 127.74C105.253 127.861 106.929 127.895 108.603 127.841C110.647 127.865 112.628 127.129 114.161 125.775C116.301 123.757 117.821 121.294 117.074 118.071C116.879 117.21 117.229 116.92 118.104 117.014C118.73 117.082 119.329 117.411 119.954 117.277C124.234 116.362 126.683 114.35 127.672 110.097C128.076 108.24 127.713 106.356 127.847 104.492ZM152.993 64.1597C153.053 61.9368 152.741 59.7194 152.071 57.5991C151.471 55.5259 150.331 53.6494 148.767 52.1623C148.007 51.4894 147.374 50.6483 146.547 50.036C144.465 48.5463 142.047 47.5961 139.508 47.2704C135.933 46.7332 132.28 47.1391 128.91 48.448C126.398 49.3446 124.14 50.836 122.33 52.7948C122.128 53.0303 121.899 53.1514 121.657 52.9226C121.414 52.6939 121.583 52.4651 121.764 52.2901C122.456 51.5637 123.201 50.889 123.992 50.2715C125.701 49.0513 127.583 48.0942 129.576 47.4319C129.727 47.3964 129.861 47.3101 129.955 47.1876C130.049 47.065 130.099 46.9137 130.095 46.7591C130.209 45.3124 130.384 43.8724 130.492 42.4257C130.739 40.748 130.776 39.0457 130.599 37.3589C130.478 36.6255 130.37 36.5313 129.684 36.8139C129.512 36.9105 129.322 36.9722 129.126 36.9956C127.975 36.9148 126.878 37.3118 125.761 37.3051C124.926 37.2522 124.088 37.2996 123.265 37.4464C121.135 37.8339 119.06 38.4731 117.081 39.3507C116.455 39.6669 116.334 39.9428 116.509 40.6089C117.029 42.393 117.256 44.2496 117.182 46.1064C117.095 47.6271 116.852 49.1141 117.31 50.6819C117.379 51.0859 117.552 51.4651 117.811 51.7824C118.071 52.0997 118.408 52.3442 118.79 52.492C120.71 53.3893 122.409 54.6977 123.767 56.3244C125.125 57.9511 126.109 59.8565 126.649 61.9056C127.371 64.0247 127.578 66.2848 127.255 68.4998C127.066 70.1574 126.737 71.7961 126.273 73.3984C126.226 73.5128 126.165 73.681 126.219 73.7684C126.273 73.8559 126.501 73.7684 126.629 73.7684C128.315 73.206 130.061 72.8447 131.831 72.6918C134.022 72.4691 136.235 72.7262 138.317 73.4455C140.467 74.091 142.445 75.2108 144.104 76.7224C145.712 78.1556 146.966 79.9432 147.764 81.9439C147.96 82.4486 148.161 82.7043 148.754 82.6572C149.272 82.6537 149.785 82.7663 150.254 82.9869C150.601 83.1461 150.984 83.2111 151.364 83.1753C154.104 82.6964 156.917 82.853 159.587 83.6329C159.681 83.6709 159.782 83.689 159.884 83.6859C159.985 83.6829 160.085 83.6587 160.177 83.6151C160.268 83.5714 160.35 83.5092 160.417 83.4323C160.483 83.3555 160.533 83.2657 160.563 83.1686C161.192 81.8576 161.697 80.4901 162.07 79.0842C162.362 78.155 162.587 77.2061 162.743 76.2446C162.816 75.4034 162.839 74.5585 162.81 73.7146C162.837 72.5637 162.992 71.4193 163.274 70.3031C163.422 69.7043 163.409 69.5495 162.817 69.4755C161.476 69.3094 160.12 69.3094 158.779 69.4755C156.996 69.6908 155.2 69.8186 153.396 69.9532C152.939 69.9532 152.724 70.1416 152.616 70.6261C152.549 70.8363 152.465 71.041 152.367 71.2384C151.447 73.9116 149.896 76.3236 147.845 78.27C147.657 78.4517 147.435 78.7208 147.172 78.445C146.91 78.1691 147.071 77.9403 147.32 77.7115C149.596 75.5056 151.237 72.7283 152.071 69.6706C152.66 67.893 152.96 66.0324 152.959 64.1597H152.993ZM135.787 152.98C137.984 153.028 140.176 152.754 142.294 152.166C145.443 151.304 147.724 149.198 149.776 146.85C151.199 145.134 152.15 143.077 152.535 140.881C153.078 138.336 153.144 135.713 152.73 133.143C152.416 131.069 151.778 129.058 150.839 127.182C149.96 125.344 148.733 123.694 147.226 122.323C147.018 122.135 146.937 121.906 147.132 121.684C147.327 121.462 147.583 121.583 147.764 121.765C150.04 123.869 151.713 126.543 152.609 129.51C152.649 129.691 152.752 129.853 152.9 129.965C153.048 130.077 153.231 130.133 153.417 130.122C154.594 130.203 155.772 130.324 156.949 130.425C158.901 130.593 160.845 130.916 162.817 130.613C163.234 130.546 163.564 130.297 163.382 130.014C162.998 129.409 163.18 128.763 163.032 128.157C162.91 127.522 162.831 126.879 162.797 126.233C162.804 125.243 162.741 124.253 162.608 123.272C162.207 121.095 161.529 118.978 160.59 116.974C160.28 116.382 159.997 116.301 159.473 116.49C157.23 117.127 154.885 117.319 152.569 117.055C151.629 116.838 150.646 116.903 149.743 117.243C149.343 117.393 148.917 117.455 148.491 117.425C148.128 117.425 148 117.553 147.872 117.876C147.053 120.013 145.725 121.919 144.003 123.427C141.279 125.79 137.847 127.182 134.246 127.383C131.698 127.59 129.136 127.229 126.744 126.327C126.589 126.273 126.414 126.125 126.246 126.246C126.078 126.367 126.246 126.542 126.246 126.67C126.816 128.416 127.178 130.223 127.322 132.053C127.526 134.179 127.267 136.323 126.562 138.338C125.916 140.489 124.793 142.467 123.278 144.125C121.859 145.712 120.096 146.955 118.124 147.758C117.613 147.96 117.296 148.142 117.35 148.774C117.356 149.293 117.243 149.806 117.021 150.275C116.866 150.6 116.801 150.96 116.832 151.318C117.32 154.079 117.165 156.916 116.381 159.608C116.307 159.857 116.153 160.281 116.61 160.462C117.068 160.644 117.559 160.987 118.05 161.135C120.695 162.197 123.517 162.752 126.367 162.77C127.504 162.772 128.636 162.928 129.731 163.235C130.33 163.383 130.478 163.369 130.559 162.77C130.73 161.398 130.73 160.011 130.559 158.639C130.344 156.842 130.209 155.039 130.074 153.256C130.074 153.114 130.029 152.976 129.946 152.861C129.863 152.746 129.745 152.66 129.61 152.616C129.307 152.502 128.998 152.401 128.688 152.293C126.047 151.35 123.667 149.793 121.744 147.752C121.569 147.57 121.381 147.348 121.637 147.119C121.892 146.89 122.114 147.011 122.309 147.24C124.376 149.383 126.942 150.978 129.778 151.883C131.711 152.515 133.722 152.875 135.754 152.953L135.787 152.98ZM64.1928 47.0417C61.9801 46.966 59.7701 47.257 57.6524 47.903C55.5568 48.502 53.659 49.6495 52.155 51.227C51.4821 51.9941 50.6477 52.6198 50.0354 53.4542C48.5319 55.5544 47.5766 57.9968 47.2564 60.5598C46.7368 64.114 47.1472 67.7421 48.4474 71.0904C49.3476 73.6005 50.8412 75.8559 52.8009 77.6644C53.0297 77.873 53.1508 78.1018 52.9221 78.3373C52.6933 78.5728 52.4645 78.4046 52.2895 78.2229C51.5631 77.5309 50.8884 76.7865 50.2709 75.9957C49.0508 74.2887 48.0936 72.4084 47.4314 70.4175C47.3958 70.267 47.3095 70.1333 47.187 70.0389C47.0644 69.9445 46.9131 69.8953 46.7585 69.8994C45.5136 69.8119 44.2688 69.6841 43.0307 69.5764C41.1399 69.4082 39.2626 69.0852 37.3583 69.388C36.6249 69.5091 36.5307 69.6235 36.8133 70.3031C36.9157 70.473 36.9779 70.664 36.995 70.8616C36.9142 72.0122 37.3112 73.109 37.3045 74.226C37.2516 75.0585 37.299 75.8944 37.4458 76.7157C37.8479 78.8902 38.5263 81.0045 39.4645 83.0071C39.4954 83.1138 39.5487 83.2128 39.6209 83.2973C39.6931 83.3818 39.7825 83.4499 39.8832 83.497C39.9838 83.5441 40.0934 83.5692 40.2045 83.5706C40.3157 83.572 40.4258 83.5496 40.5276 83.505C42.4182 82.9655 44.3842 82.7382 46.348 82.8321C47.7341 82.9062 49.1405 83.357 50.5064 82.6841C50.7506 82.5653 51.0244 82.5208 51.2937 82.5563C51.8858 82.637 52.0877 82.3342 52.2828 81.8363C53.3102 79.2421 55.0944 77.0171 57.4034 75.4506C59.5937 73.965 62.1049 73.0195 64.7311 72.6918C66.0267 72.4933 67.3449 72.4933 68.6405 72.6918C70.1906 72.8522 71.7223 73.1563 73.2161 73.6002C73.4112 73.6675 73.6467 73.8896 73.8284 73.681C74.0101 73.4724 73.788 73.2974 73.714 73.1225C73.1635 71.7014 72.8235 70.2076 72.7047 68.6882C72.4118 65.7188 72.8747 62.7236 74.0505 59.9811C74.7904 58.1857 75.8877 56.5595 77.2758 55.2014C78.6639 53.8434 80.3138 52.7819 82.125 52.0815C82.5086 51.9268 82.6364 51.7653 82.6162 51.3616C82.6121 50.8003 82.722 50.244 82.9392 49.7265C83.1042 49.3808 83.1761 48.9981 83.1478 48.6162C82.6657 45.8707 82.8176 43.0513 83.5919 40.3734C83.6659 40.1312 83.8072 39.7006 83.3362 39.5256C82.8652 39.3507 82.3942 39.0008 81.8962 38.8527C79.2244 37.8019 76.3831 37.2478 73.5122 37.2176C72.3671 37.2558 71.2253 37.0754 70.1478 36.6861C69.8046 36.5582 69.4749 36.6322 69.4749 37.11C69.4749 37.5877 69.3403 38.0924 69.3403 38.5768C69.3403 41.3693 69.7575 44.1348 69.9661 46.9071C69.9661 47.2368 70.2016 47.2906 70.4371 47.3848C71.3051 47.7347 72.1866 48.0577 73.0277 48.4547C74.9996 49.3635 76.7755 50.648 78.256 52.2363C78.4444 52.4382 78.6664 52.6737 78.3704 52.9092C78.0743 53.1447 77.8926 52.9697 77.6975 52.7477C76.1368 51.1177 74.2713 49.81 72.2068 48.8988C69.6852 47.7539 66.9609 47.1226 64.1928 47.0417ZM47.0545 135.505C46.9772 137.804 47.2541 140.1 47.8755 142.315C48.7435 145.43 50.8294 147.698 53.1643 149.716C54.8804 151.136 56.9339 152.088 59.126 152.482C61.3873 152.967 63.7133 153.074 66.0096 152.798C68.3478 152.538 70.6239 151.878 72.7384 150.847C74.5973 149.967 76.2731 148.743 77.6773 147.24C77.8859 147.011 78.1079 146.857 78.3502 147.065C78.5924 147.274 78.4376 147.556 78.2425 147.738C77.5483 148.465 76.8017 149.139 76.0086 149.757C74.3205 150.965 72.4606 151.913 70.4909 152.569C70.333 152.597 70.1899 152.679 70.0875 152.803C69.9851 152.926 69.9301 153.082 69.9324 153.242C69.8517 154.514 69.7239 155.779 69.6095 157.044C69.3158 158.918 69.257 160.821 69.4345 162.71C69.5018 163.147 69.7306 163.49 70.1074 163.288C70.9081 162.824 71.8098 163.107 72.624 162.817C73.0182 162.74 73.4199 162.706 73.8217 162.716C74.8091 162.705 75.7952 162.64 76.7756 162.521C78.9747 162.131 81.1126 161.452 83.1343 160.503C83.6794 160.227 83.7534 159.924 83.6255 159.487C82.9291 157.145 82.7342 154.682 83.0536 152.26C83.2318 151.405 83.157 150.516 82.8383 149.703C82.6882 149.303 82.6218 148.877 82.6431 148.451C82.6675 148.313 82.6379 148.17 82.5603 148.052C82.4827 147.935 82.3631 147.851 82.226 147.819C80.0675 146.994 78.145 145.652 76.6276 143.909C74.3257 141.256 72.9489 137.926 72.7047 134.422C72.4505 131.786 72.8074 129.126 73.7477 126.65C73.8015 126.502 73.9697 126.327 73.8082 126.159C73.6467 125.991 73.5189 126.159 73.3776 126.213C71.4485 126.848 69.4439 127.226 67.4159 127.336C65.053 127.411 62.699 127.013 60.4919 126.166C58.7799 125.497 57.2059 124.519 55.8491 123.279C54.294 121.887 53.0727 120.162 52.2761 118.232C52.054 117.694 51.8925 117.297 51.1793 117.378C50.6857 117.384 50.1974 117.276 49.7528 117.062C49.4035 116.902 49.0182 116.837 48.6358 116.873C45.8974 117.343 43.088 117.184 40.4199 116.409C40.1643 116.328 39.7471 116.187 39.5452 116.617C38.6901 118.296 38.0633 120.082 37.6813 121.926C37.4674 122.55 37.323 123.195 37.2507 123.851C37.2507 124.739 37.2507 125.634 37.1901 126.542C37.1461 127.602 36.9973 128.654 36.746 129.685C36.5845 130.398 36.5778 130.506 37.3112 130.607C38.6385 130.771 39.9809 130.771 41.3082 130.607C43.1047 130.398 44.9081 130.27 46.6912 130.109C46.9334 130.109 47.1824 130.109 47.2833 129.792C47.3843 129.476 47.539 129.12 47.6736 128.736C48.6148 126.095 50.1691 123.715 52.2088 121.792C52.3972 121.624 52.6125 121.429 52.848 121.677C53.0835 121.926 52.9557 122.155 52.7269 122.35C50.5807 124.411 48.9846 126.977 48.084 129.813C47.4854 131.655 47.1391 133.57 47.0545 135.505ZM50.1834 115.992C50.4593 115.992 50.6141 115.992 50.7688 115.992C51.2937 116.032 51.583 115.924 51.3946 115.319C51.2799 114.863 51.2123 114.396 51.1928 113.926C51.1052 112.479 51.2207 111.027 51.5359 109.613C51.9163 107.847 52.575 106.152 53.4873 104.593C54.4503 102.952 55.6859 101.486 57.141 100.26C57.3832 100.044 57.3496 99.9569 57.141 99.7551C56.5172 99.2119 55.9283 98.6299 55.3781 98.0123C53.444 95.8132 52.1153 93.1488 51.5225 90.2809C51.1264 88.4668 51.0852 86.5931 51.4013 84.7633C51.5157 84.0904 51.3273 84.0299 50.7285 84.0029C49.9985 84.0926 49.2613 84.1084 48.5281 84.05C47.0266 83.7045 45.4784 83.609 43.9458 83.7674C42.4722 83.9087 41.0457 84.3259 39.5923 84.6018C37.1969 85.0594 34.8822 85.6313 32.9981 87.2933C32.4068 87.7211 31.851 88.1959 31.3361 88.7131C30.6632 89.5542 30.1451 90.5299 29.526 91.4046C28.4629 92.9321 27.3997 94.4662 27.0296 96.3301C26.7433 97.5903 26.6078 98.8801 26.6259 100.172C26.661 101.646 26.8872 103.11 27.2988 104.526C27.8524 106 28.6309 107.38 29.6068 108.617C30.3604 109.714 30.9525 110.918 31.9955 111.806C33.4893 113.105 35.01 114.296 37.0084 114.807C38.8925 115.285 40.7833 115.682 42.6876 116.052C43.6111 116.239 44.5512 116.331 45.4935 116.328C47.1016 116.328 48.6627 115.736 50.1834 115.992ZM149.904 83.9962H149.177C148.7 83.9962 148.41 84.0904 148.599 84.6691C148.72 85.124 148.788 85.5914 148.801 86.062C148.879 87.4878 148.768 88.9178 148.471 90.3146C148.102 92.0811 147.455 93.7778 146.553 95.341C145.594 97.0043 144.348 98.485 142.873 99.7147C142.583 99.9704 142.677 100.058 142.873 100.266C143.476 100.797 144.049 101.361 144.588 101.955C146.516 104.162 147.845 106.827 148.451 109.693C148.869 111.549 148.906 113.469 148.558 115.339C148.444 115.945 148.727 115.965 149.144 116.012C150.139 115.988 151.134 116.024 152.125 116.119C153.784 116.402 155.479 116.402 157.138 116.119C158.483 115.877 159.829 115.588 161.121 115.292C163.187 114.828 165.273 114.309 166.894 112.762C167.47 112.355 168.015 111.905 168.523 111.416C169.411 110.265 170.165 109.007 170.992 107.803C171.919 106.565 172.581 105.149 172.937 103.644C173.224 102.38 173.358 101.085 173.334 99.7887C173.303 98.3621 173.095 96.9449 172.715 95.5697C172.18 94.0725 171.405 92.6725 170.42 91.4248C169.633 90.2876 169.014 89.0294 167.917 88.1277C166.571 86.9973 165.226 85.8534 163.463 85.342C161.7 84.8306 160.044 84.5143 158.329 84.1375C156.753 83.7881 155.136 83.6568 153.524 83.7472C152.273 83.8078 151.021 84.4134 149.904 83.9962ZM84.0091 50.2917C84.0091 50.5406 84.0091 50.7829 84.0091 51.0251C84.0091 51.2674 84.11 51.5163 84.507 51.4356C86.4375 51.0385 88.432 51.073 90.3476 51.5365C92.0665 51.9285 93.7253 52.5485 95.2798 53.3802C96.9238 54.3285 98.392 55.5531 99.6199 57.0003C99.9631 57.3973 100.098 57.3098 100.394 57.0003C101.992 55.1649 103.962 53.6901 106.174 52.6737C107.311 52.2043 108.483 51.8241 109.679 51.5365C111.485 51.081 113.367 51.0236 115.197 51.3683C115.964 51.4894 115.937 51.4827 115.984 50.6954C116.031 49.9081 115.776 49.2622 115.937 48.5557C116.315 46.9903 116.407 45.3694 116.206 43.7715C115.871 41.2029 115.315 38.668 114.544 36.1949C113.919 34.1762 112.526 32.7228 111.099 31.2963C110.294 30.6251 109.434 30.022 108.529 29.493C107.035 28.4298 105.514 27.3936 103.671 27.0235C102.386 26.7357 101.071 26.5979 99.7545 26.613C98.3273 26.6363 96.9092 26.8444 95.5355 27.2321C94.0203 27.7861 92.6081 28.5889 91.3569 29.6074C90.1794 30.4552 88.874 31.081 87.8983 32.2518C86.5058 33.802 85.5065 35.6644 84.9848 37.6819C84.6012 39.3507 84.2446 41.0463 83.9283 42.7083C83.7343 43.9476 83.6712 45.2038 83.7399 46.4563C83.7736 47.7751 84.4061 48.9863 84.0091 50.2917ZM115.991 149.75C115.991 149.575 115.991 149.393 115.991 149.218C116.031 148.68 115.89 148.451 115.271 148.606C112.694 149.279 110.177 148.707 107.708 148.034C106.633 147.668 105.605 147.176 104.646 146.567C102.989 145.599 101.508 144.356 100.266 142.893C100.044 142.644 99.9496 142.624 99.7208 142.893C99.2138 143.488 98.6676 144.047 98.0857 144.569C95.8656 146.522 93.1798 147.871 90.287 148.485C88.4536 148.891 86.5582 148.932 84.7089 148.606C84.036 148.485 84.036 148.714 83.9889 149.232C83.9485 149.972 84.2042 150.706 84.036 151.432C83.6658 152.974 83.5746 154.569 83.7669 156.142C84.1046 158.687 84.6469 161.201 85.3885 163.658C86.0075 165.744 87.4071 167.252 88.9144 168.698C89.9237 169.681 91.2425 170.259 92.3663 171.107C93.545 172.003 94.9079 172.626 96.3564 172.931C97.6188 173.217 98.9109 173.353 100.205 173.334C101.653 173.297 103.09 173.083 104.485 172.695C105.961 172.163 107.342 171.397 108.576 170.428C109.686 169.661 110.911 169.082 111.819 167.999C113.111 166.505 114.295 164.984 114.814 162.986C115.224 161.411 115.527 159.816 115.89 158.235C116.231 156.703 116.358 155.132 116.267 153.565C116.206 152.307 115.608 151.062 115.991 149.75ZM73.4718 68.7084C73.6081 70.4439 74.0027 72.1494 74.6426 73.7684C74.7166 74.0107 74.9521 74.0174 75.1473 73.9299C75.3418 73.826 75.5305 73.7114 75.7125 73.5868C77.2332 72.6582 78.6462 71.5681 80.2477 70.7607C81.1628 70.3098 81.2772 69.9061 80.8667 68.9843C80.6713 68.5534 80.5246 68.102 80.4294 67.6385C80.1166 65.6487 80.5763 63.6145 81.7146 61.9527C83.1276 59.6582 85.3548 58.8036 87.9656 58.7565C89.068 58.716 90.1627 58.9544 91.1484 59.4496C92.1341 59.9448 92.9788 60.6808 93.6044 61.5893C93.8264 61.8854 93.9543 61.8921 94.2369 61.7104C95.0645 61.1789 95.9056 60.6675 96.74 60.1426C97.4128 59.7254 98.0857 59.3015 98.7048 58.8642C99.3238 58.4268 99.418 58.0836 99.1018 57.6799C97.832 56.0893 96.2466 54.7788 94.4454 53.831C91.7704 52.3242 88.688 51.7001 85.6375 52.0479C83.0155 52.3426 80.5471 53.4347 78.5655 55.1768C76.3526 57.0835 74.7672 59.6141 74.0168 62.4372C73.6755 63.7243 73.4503 65.0394 73.3439 66.3668C73.2767 67.1608 73.4987 67.9211 73.4718 68.7084ZM86.7612 148.034C87.6618 148.074 88.564 148.018 89.4527 147.866C93.1633 147.27 96.5357 145.36 98.9537 142.483C99.4584 141.904 99.4584 141.622 98.8124 141.191C97.285 140.182 95.7239 139.219 94.183 138.23C93.9341 138.062 93.8264 138.102 93.6582 138.345C92.8004 139.623 91.5181 140.558 90.0381 140.982C88.5468 141.394 86.9677 141.359 85.4961 140.881C84.4349 140.575 83.4655 140.012 82.6734 139.242C81.8812 138.472 81.2908 137.519 80.9542 136.467C80.3858 135.145 80.2151 133.686 80.463 132.269C80.6077 131.639 80.8174 131.025 81.0888 130.438C81.2839 130.014 81.0888 129.826 80.7995 129.631L78.2694 128.029L75.3626 126.206C74.979 125.964 74.757 125.883 74.5619 126.482C74.2048 127.479 73.9082 128.497 73.6737 129.53C73.4268 130.811 73.3163 132.115 73.3439 133.419C73.3794 134.929 73.6286 136.427 74.0841 137.867C74.893 140.725 76.5751 143.259 78.8952 145.114C81.114 146.944 83.8853 147.973 86.7612 148.034ZM51.9733 87.253C51.939 88.6187 52.1207 89.9812 52.5116 91.2902C53.4076 94.2573 55.1385 96.9038 57.4976 98.914C58.0965 99.4119 58.3656 99.4253 58.7963 98.7726C59.8056 97.2385 60.7611 95.6774 61.757 94.1432C61.9252 93.8808 61.8646 93.7799 61.6358 93.6184C60.358 92.7582 59.4259 91.4734 59.0049 89.9916C58.5901 88.4985 58.6252 86.9162 59.1058 85.4429C59.4119 84.3939 59.9689 83.4352 60.7286 82.6497C61.4883 81.8642 62.4278 81.2755 63.4661 80.9346C64.8077 80.3515 66.2907 80.1738 67.7321 80.4232C68.3791 80.5976 69.0113 80.8226 69.6229 81.0961C69.6794 81.1339 69.7436 81.1585 69.8109 81.168C69.8781 81.1776 69.9467 81.1717 70.0114 81.151C70.0761 81.1303 70.1353 81.0953 70.1845 81.0485C70.2338 81.0017 70.2718 80.9443 70.2958 80.8808C70.8476 79.9993 71.4128 79.1178 71.978 78.2431L73.8486 75.3161C74.0101 75.0671 74.1245 74.7845 73.7679 74.6432C72.3347 74.0663 70.8329 73.6773 69.2999 73.4858C67.6304 73.2848 65.9411 73.3165 64.2803 73.58C61.5045 73.9942 58.9006 75.1784 56.7642 76.9983C55.256 78.243 54.0436 79.8078 53.215 81.5791C52.3863 83.3505 51.9622 85.284 51.9733 87.2395V87.253ZM68.58 126.502C70.3419 126.385 72.0755 125.999 73.7208 125.358C73.7707 125.347 73.8175 125.325 73.8575 125.293C73.8974 125.262 73.9294 125.221 73.951 125.175C73.9725 125.128 73.983 125.078 73.9815 125.027C73.9801 124.975 73.9669 124.925 73.9428 124.88C73.835 124.663 73.7113 124.454 73.5727 124.255C72.6576 122.727 71.5541 121.321 70.7534 119.713C70.3294 118.872 69.8988 118.67 69.1519 119.04C68.1285 119.559 66.9739 119.763 65.8346 119.625C64.1042 119.463 62.4629 118.783 61.1245 117.674C59.4019 116.187 58.7896 114.215 58.7492 112.001C58.7094 110.899 58.9496 109.804 59.4473 108.819C59.945 107.834 60.6841 106.992 61.5955 106.369C61.9185 106.134 61.8579 105.993 61.6964 105.737C61.0639 104.734 60.4448 103.718 59.8056 102.722C59.4692 102.198 59.1327 101.666 58.7626 101.161C58.3926 100.657 58.0898 100.583 57.5044 101.02C57.0025 101.397 56.5504 101.835 56.1586 102.325C55.2917 103.329 54.5128 104.405 53.8304 105.542C52.3452 108.239 51.725 111.328 52.054 114.39C52.3431 116.991 53.4181 119.441 55.1358 121.415C57.0677 123.685 59.6523 125.304 62.5375 126.051C63.7839 126.36 65.0529 126.57 66.3325 126.677C67.0844 126.662 67.8348 126.603 68.58 126.502ZM141.251 111.874C141.042 112.728 141.251 113.845 140.807 114.881C140.443 115.825 139.882 116.679 139.162 117.388C138.441 118.098 137.577 118.644 136.628 118.993C135.273 119.602 133.765 119.79 132.302 119.531C131.654 119.375 131.021 119.161 130.411 118.892C130.351 118.861 130.285 118.842 130.218 118.838C130.15 118.834 130.083 118.844 130.019 118.867C129.956 118.891 129.898 118.927 129.85 118.974C129.801 119.021 129.763 119.078 129.738 119.141C129.193 120.009 128.641 120.87 128.096 121.731L126.252 124.598C126.01 124.975 125.903 125.271 126.528 125.392C127.154 125.513 127.733 125.87 128.352 126.065C129.057 126.31 129.793 126.457 130.539 126.502C132.066 126.502 133.573 126.798 135.128 126.502C136.227 126.326 137.312 126.077 138.378 125.755C140.693 124.995 142.777 123.659 144.434 121.873C145.867 120.382 146.924 118.573 147.52 116.593C148.115 114.614 148.232 112.521 147.859 110.487C147.282 106.809 145.394 103.463 142.543 101.067C141.937 100.542 141.648 100.556 141.197 101.229C140.215 102.722 139.279 104.243 138.297 105.744C138.082 106.08 138.196 106.201 138.479 106.417C139.348 107.037 140.054 107.86 140.534 108.815C141.015 109.769 141.256 110.826 141.237 111.894L141.251 111.874ZM148.034 86.1292C147.955 85.0677 147.74 84.0206 147.394 83.0138C146.517 80.3335 144.808 78.0025 142.516 76.359C139.452 74.1347 135.691 73.0841 131.918 73.3984C130.022 73.5183 128.154 73.915 126.374 74.5759C126.057 74.6903 125.997 74.872 126.104 75.1344C126.208 75.3283 126.325 75.5149 126.454 75.6929C127.369 77.2203 128.473 78.6266 129.274 80.2281C129.731 81.1365 130.128 81.2441 131.057 80.8404C131.487 80.6436 131.939 80.4968 132.403 80.403C134.392 80.0902 136.427 80.55 138.088 81.6882C140.403 83.1215 141.244 85.3689 141.285 88.0066C141.313 89.0969 141.07 90.1772 140.576 91.1499C140.083 92.1226 139.355 92.9571 138.459 93.578C138.176 93.7934 138.136 93.9145 138.324 94.2038C138.862 95.0247 139.374 95.8725 139.892 96.7069C140.302 97.3798 140.78 97.9854 141.177 98.665C141.386 99.0149 141.688 99.5061 142.24 99.1562C142.648 98.9111 143.014 98.6022 143.323 98.2411C144.586 96.8606 145.665 95.3227 146.533 93.6655C147.641 91.3136 148.156 88.7262 148.034 86.1292ZM113.252 58.9113C113.724 58.8787 114.197 58.9499 114.639 59.1199C115.652 59.4582 116.575 60.0231 117.338 60.7717C118.1 61.5202 118.682 62.4327 119.039 63.4397C119.621 64.7793 119.801 66.2591 119.557 67.6991C119.388 68.3498 119.163 68.9847 118.884 69.5966C118.852 69.6555 118.832 69.7206 118.826 69.7877C118.821 69.8547 118.829 69.9222 118.852 69.9858C118.874 70.0493 118.909 70.1074 118.955 70.1563C119.002 70.2052 119.058 70.2438 119.12 70.2695C120.008 70.828 120.883 71.3932 121.758 71.9517L124.631 73.7886C124.873 73.9434 125.176 74.0914 125.304 73.7415C125.633 73.0144 125.893 72.2573 126.078 71.4807C126.449 69.7821 126.61 68.0441 126.555 66.3062C126.496 64.7057 126.217 63.1209 125.728 61.5961C125.134 59.8087 124.194 58.1556 122.962 56.7311C119.652 53.0034 115.513 51.3952 110.574 52.1286C106.866 52.7045 103.49 54.5991 101.067 57.4646C100.508 58.0904 100.69 58.4672 101.289 58.8574C102.742 59.8197 104.236 60.728 105.689 61.6835C106.073 61.9325 106.207 61.8248 106.463 61.4951C107.025 60.7107 107.756 60.0619 108.601 59.5962C109.446 59.1305 110.385 58.8597 111.348 58.8036C111.985 58.7854 112.622 58.8214 113.252 58.9113ZM113.252 148.014C114.485 147.981 115.707 147.77 116.879 147.388C119.588 146.523 121.947 144.811 123.608 142.503C125.182 140.181 126.168 137.512 126.482 134.725C126.796 131.938 126.429 129.116 125.411 126.502C125.142 125.89 125.021 125.883 124.308 126.347C122.835 127.386 121.308 128.346 119.732 129.22C118.804 129.691 118.716 130.055 119.14 131.01C119.328 131.414 119.468 131.839 119.557 132.275C119.894 134.286 119.435 136.349 118.279 138.028C116.859 140.316 114.625 141.164 112.021 141.211C110.919 141.245 109.826 141.003 108.84 140.509C107.854 140.014 107.007 139.282 106.376 138.378C106.261 138.23 106.214 137.975 105.932 138.156C104.296 139.206 102.655 140.249 101.033 141.319C100.811 141.467 100.555 141.749 100.75 142.066C100.982 142.518 101.292 142.926 101.665 143.27C103.159 144.434 104.559 145.719 106.315 146.52C108.475 147.559 110.849 148.077 113.246 148.034L113.252 148.014ZM123.507 181.92C124.503 179.135 126.313 176.981 127.854 174.667C129.065 172.85 130.182 170.986 130.384 168.752C130.478 167.729 130.693 166.653 130.088 165.697C129.828 165.314 129.603 164.909 129.415 164.486C129.213 163.995 128.957 163.968 128.56 164.338C127.423 165.408 126.427 166.619 125.324 167.702C124.404 168.748 123.66 169.937 123.124 171.222C122.505 172.433 122.632 173.785 122.498 175.091C122.275 177.415 122.619 179.758 123.5 181.92H123.507ZM76.4998 18.0742C75.5039 20.8599 73.6938 23.0131 72.1462 25.3346C70.9418 27.1514 69.8181 29.0085 69.6229 31.2425C69.5287 32.2921 69.2865 33.3957 69.9459 34.3579C70.2024 34.7004 70.4276 35.0652 70.6188 35.448C70.8947 36.0334 71.0427 36.0468 71.5339 35.6027C72.6711 34.5732 73.6198 33.362 74.6897 32.2989C75.6079 31.252 76.3509 30.0636 76.89 28.7797C77.5023 27.5685 77.3812 26.216 77.5158 24.9107C77.7344 22.5832 77.3858 20.2375 76.4998 18.0742ZM123.46 18.0742C123.15 19.097 122.787 19.9986 122.619 20.9272C122.222 22.7776 122.464 24.6617 122.538 26.5323C122.554 26.9302 122.624 27.3242 122.747 27.7031C123.227 29.4186 124.111 30.9944 125.324 32.2989C126.34 33.362 127.275 34.4992 128.359 35.4951C129.031 36.1141 129.092 36.1074 129.509 35.2461C129.611 35.0024 129.75 34.7755 129.92 34.5732C130.232 34.2237 130.413 33.7764 130.431 33.3082C130.629 31.1064 130.092 28.9012 128.904 27.037C127.766 25.1933 126.535 23.4101 125.297 21.6539C124.581 20.5191 123.966 19.3235 123.46 18.0809V18.0742ZM76.5267 182.001C76.8497 180.884 77.1995 179.982 77.3745 179.014C77.5965 177.537 77.6439 176.04 77.5158 174.552C77.4984 171.997 76.4845 169.549 74.6897 167.729C74.6223 167.669 74.5614 167.601 74.508 167.527C73.7566 166.59 72.9356 165.711 72.052 164.897C71.0225 163.961 71.1302 164.055 70.2756 165.145C69.4211 166.236 69.5355 167.561 69.6498 168.833C69.845 171 70.9283 172.803 72.0924 174.566C73.64 176.921 75.4904 179.108 76.5267 182.001ZM181.94 123.461C180.884 123.151 179.955 122.835 179.006 122.626C177.176 122.216 175.319 122.478 173.468 122.545C173.069 122.562 172.673 122.63 172.291 122.747C170.582 123.234 169.012 124.117 167.709 125.324C166.699 126.293 165.609 127.182 164.647 128.211C163.853 129.066 163.86 129.059 164.876 129.557C165.103 129.653 165.313 129.787 165.495 129.954C165.808 130.242 166.214 130.409 166.639 130.425C168.883 130.635 171.134 130.088 173.031 128.871C174.855 127.74 176.624 126.522 178.414 125.304C179.531 124.582 180.711 123.963 181.94 123.454V123.461ZM18.1073 123.461C19.0351 123.845 19.9345 124.295 20.7988 124.806C22.6828 126.051 24.4929 127.404 26.4375 128.548C29.2569 130.21 32.1704 131.562 35.407 129.429C35.73 129.214 36.127 129.052 35.7367 128.648C34.2787 127.001 32.6426 125.521 30.8583 124.234C29.9693 123.603 28.9828 123.121 27.938 122.808C26.4509 122.519 24.9379 122.383 23.423 122.404C21.5989 122.417 19.7943 122.78 18.1073 123.474V123.461ZM181.886 76.5071C180.956 76.127 180.057 75.6771 179.195 75.1613C177.311 73.9232 175.494 72.5707 173.556 71.4268C170.737 69.7581 167.816 68.4056 164.586 70.5453C164.257 70.7607 163.86 70.9154 164.257 71.3192C165.798 72.887 167.271 74.5355 169.135 75.7333C170.024 76.3672 171.01 76.8514 172.055 77.1665C173.543 77.4535 175.056 77.5865 176.57 77.5635C178.393 77.5634 180.199 77.2092 181.886 76.5205V76.5071ZM18.0602 76.5071C19.1166 76.8099 20.0452 77.1261 20.9939 77.3414C22.8241 77.7519 24.6813 77.4827 26.5317 77.4222C26.9319 77.4063 27.328 77.3361 27.7093 77.2136C29.4157 76.7442 30.9878 75.8798 32.2983 74.6903C33.3076 73.7146 34.3977 72.8264 35.3599 71.7969C36.1472 70.9491 36.1472 70.9491 35.1244 70.4511C34.9001 70.3559 34.6932 70.224 34.5121 70.0609C34.1995 69.771 33.7941 69.6016 33.3682 69.5831C31.1208 69.3764 28.8688 69.9258 26.9691 71.1442C25.1523 72.2747 23.3826 73.4926 21.5861 74.7105C20.4655 75.4226 19.2859 76.0372 18.0602 76.5474V76.5071ZM112.129 140.357C112.619 140.383 113.111 140.358 113.596 140.283C114.574 140.095 115.492 139.669 116.266 139.043C117.041 138.416 117.649 137.607 118.037 136.689C118.864 134.752 119.187 132.854 118.265 130.862C118.09 130.492 117.956 130.445 117.633 130.654C116.738 131.219 115.823 131.757 114.941 132.343C112.405 134.018 109.848 135.653 107.23 137.187C106.961 137.342 106.793 137.463 107.089 137.827C108.428 139.522 110.016 140.632 112.129 140.397V140.357ZM112.189 59.564C109.996 59.3419 108.414 60.4522 107.075 62.1007C106.793 62.4506 106.954 62.5986 107.19 62.6928C107.586 62.8833 107.964 63.1085 108.32 63.3657C110.224 64.5904 112.156 65.7746 114.073 66.9791C115.251 67.7193 116.422 68.4796 117.599 69.2265C117.855 69.388 118.037 69.5293 118.272 69.0785C119.483 66.4812 118.804 64.0723 117.323 61.9258C116.753 61.1159 115.976 60.4735 115.073 60.0653C114.17 59.657 113.174 59.4979 112.189 59.6043V59.564ZM140.41 87.7105C140.41 87.4885 140.41 87.2597 140.41 87.0376C140.398 86.8114 140.369 86.5864 140.322 86.3648C140.138 85.3843 139.714 84.4646 139.088 83.6875C138.462 82.9104 137.654 82.2999 136.736 81.9103C134.798 81.0826 132.894 80.7529 130.902 81.6815C130.525 81.8565 130.492 81.991 130.693 82.314C131.265 83.2089 131.81 84.1173 132.382 85.0055C133.937 87.4414 135.511 89.8705 137.052 92.3197C137.516 93.0464 137.678 93.107 138.324 92.488C139.683 91.2431 140.632 89.7628 140.41 87.7509V87.7105ZM59.6172 112.277C59.5826 112.699 59.5984 113.124 59.6643 113.542C60.1622 115.514 61.1446 117.082 63.1027 117.956C65.0608 118.831 66.9583 119.208 68.9904 118.313C69.4345 118.118 69.5422 117.97 69.2663 117.553C68.7684 116.826 68.2973 116.072 67.8196 115.325C66.1823 112.755 64.5517 110.18 62.9278 107.601C62.4769 106.888 62.3154 106.84 61.7031 107.426C60.317 108.738 59.3279 110.239 59.6172 112.277ZM140.403 112.425C140.403 112.143 140.403 111.981 140.403 111.827C140.497 109.808 139.434 108.408 138.001 107.197C137.792 107.022 137.469 106.82 137.268 107.197C136.844 108.018 136.251 108.738 135.78 109.532C134.865 111.059 133.917 112.56 132.961 114.06C132.207 115.238 131.454 116.409 130.714 117.593C130.579 117.808 130.384 118.004 130.815 118.205C133.459 119.45 135.902 118.764 138.075 117.223C138.844 116.692 139.462 115.971 139.87 115.131C140.278 114.29 140.462 113.358 140.403 112.425ZM87.7167 59.6178C87.2947 59.5798 86.8696 59.5957 86.4516 59.6649C85.4603 59.8485 84.53 60.2754 83.7443 60.9072C82.9586 61.539 82.3421 62.3561 81.9501 63.285C81.1224 65.2229 80.8129 67.1271 81.7482 69.1121C81.903 69.4486 82.0174 69.5226 82.3269 69.3274C83.242 68.742 84.1706 68.1835 85.079 67.5981C87.5215 66.0438 89.9506 64.476 92.3999 62.9284C93.0728 62.491 93.167 62.3228 92.5748 61.697C91.256 60.3176 89.7622 59.3284 87.7167 59.6178ZM87.7167 140.363H87.9858C90.0044 140.552 91.4646 139.468 92.7296 138.055C93.0257 137.719 93.0795 137.45 92.5681 137.14C90.7783 136.07 89.0355 134.933 87.2726 133.809C85.6644 132.787 84.0629 131.75 82.448 130.734C82.226 130.593 81.9837 130.277 81.7348 130.822C80.5101 133.554 81.2166 136.037 82.8854 138.224C83.4375 138.974 84.1748 139.567 85.0252 139.947C85.8755 140.327 86.8098 140.48 87.7368 140.39L87.7167 140.363ZM59.6037 87.8451C59.3279 89.6148 60.2093 91.1153 61.5484 92.4207C62.4097 93.2618 62.4298 93.255 63.0287 92.2053C63.1431 92.0035 63.318 91.8689 63.4324 91.6805L67.0391 85.9207C67.7792 84.7364 68.5396 83.5656 69.2865 82.388C69.4211 82.1727 69.6162 81.9776 69.1856 81.769C66.5411 80.5309 64.0986 81.2172 61.9117 82.7581C61.1158 83.3302 60.4839 84.101 60.0789 84.9936C59.6739 85.8862 59.5101 86.8694 59.6037 87.8451ZM167.655 53.9791C167.413 54.7058 167.204 55.3652 166.982 55.9977C166.512 57.0348 165.965 58.0357 165.347 58.992C163.889 61.9043 163.453 65.2222 164.109 68.4123C164.21 69.0045 164.512 69.0448 164.923 68.9775C165.346 68.9199 165.734 68.7093 166.013 68.3854C167.115 67.12 168.053 65.7206 168.805 64.2203C169.562 62.8617 169.83 61.2848 169.566 59.7524C169.223 58.1644 168.704 56.61 168.22 55.0422C168.129 54.6441 167.934 54.2772 167.655 53.9791ZM32.3387 53.932C32.024 54.3643 31.7956 54.8532 31.6658 55.3719C31.3428 56.5158 31.1006 57.6799 30.7103 58.7969C30.2288 60.1504 30.2288 61.6286 30.7103 62.9822C31.4591 65.049 32.6301 66.9373 34.1487 68.5267C34.3138 68.6914 34.5138 68.8168 34.734 68.8937C34.9541 68.9706 35.1887 68.9969 35.4205 68.9708C35.6425 68.9708 35.8107 68.9103 35.8444 68.6546C36.127 66.4744 36.4163 64.2943 35.8444 62.1276C35.447 60.5676 34.792 59.0848 33.9065 57.7405C33.2028 56.5533 32.6747 55.2705 32.3387 53.932ZM32.2983 146.016C32.5819 145.387 32.8072 144.734 32.9712 144.064C33.4565 143.009 34.0141 141.988 34.6399 141.009C36.105 138.085 36.5411 134.752 35.878 131.549C35.7973 131.091 35.5752 130.977 35.2051 131.024C34.7596 131.049 34.3408 131.244 34.0343 131.569C32.7491 132.992 31.7078 134.617 30.9525 136.38C30.2991 137.741 30.1652 139.294 30.5757 140.747C30.9256 141.837 31.1948 142.94 31.4841 144.044C31.6285 144.747 31.9048 145.416 32.2983 146.016ZM167.668 146.016C167.996 145.645 168.227 145.199 168.341 144.717C168.765 143.257 169.196 141.797 169.566 140.323C169.689 139.831 169.727 139.321 169.68 138.816C169.357 135.855 167.702 133.601 165.845 131.414C165.677 131.252 165.475 131.129 165.254 131.056C165.033 130.982 164.798 130.96 164.566 130.99C164.516 130.984 164.465 130.989 164.417 131.005C164.369 131.02 164.325 131.045 164.288 131.079C164.25 131.113 164.22 131.154 164.2 131.2C164.179 131.246 164.169 131.296 164.169 131.347C163.965 132.629 163.85 133.924 163.826 135.223C163.931 137.691 164.711 140.083 166.08 142.14C166.647 142.976 167.064 143.905 167.312 144.885C167.379 145.282 167.547 145.625 167.668 146.016ZM146.136 32.4133C145.731 32.0718 145.255 31.8237 144.743 31.6866C143.263 31.2559 141.783 30.8185 140.289 30.4485C139.775 30.3169 139.241 30.2827 138.714 30.3475C135.787 30.7042 133.546 32.3662 131.413 34.1897C131.262 34.3512 131.147 34.5439 131.078 34.7542C131.008 34.9645 130.985 35.1874 131.01 35.4076C131.001 35.4626 131.004 35.5187 131.019 35.5724C131.034 35.626 131.06 35.6758 131.096 35.7185C131.131 35.7612 131.176 35.7958 131.226 35.8199C131.276 35.844 131.331 35.8572 131.387 35.8584C134.186 36.2756 136.931 36.3563 139.629 35.2461C141.789 34.3646 143.586 32.7362 146.15 32.4133H146.136ZM53.9516 32.346L55.9702 33.0189C57.0085 33.4841 58.0096 34.0285 58.9645 34.6472C61.875 36.1105 65.1941 36.5491 68.3848 35.8921C68.9702 35.7911 69.0577 35.4883 68.95 35.0779C68.8924 34.6559 68.6846 34.2689 68.3646 33.9878C67.097 32.8885 65.6979 31.9505 64.1995 31.1954C62.8448 30.4344 61.2686 30.1658 59.7383 30.435C58.1436 30.7782 56.5892 31.2963 55.0282 31.7808C54.6356 31.876 54.2741 32.0707 53.9785 32.346H53.9516ZM53.8506 167.595C54.2335 167.943 54.6954 168.192 55.1964 168.321C56.6767 168.752 58.1571 169.189 59.6508 169.56C60.1671 169.691 60.7033 169.726 61.2321 169.661C64.1591 169.311 66.3931 167.642 68.5261 165.825C68.6801 165.665 68.7962 165.473 68.8661 165.262C68.936 165.051 68.9578 164.827 68.9299 164.607C68.9408 164.552 68.9395 164.496 68.926 164.442C68.9124 164.388 68.887 164.337 68.8516 164.294C68.8162 164.251 68.7717 164.216 68.7212 164.192C68.6707 164.169 68.6156 164.156 68.5598 164.156C65.7606 163.739 63.0152 163.658 60.317 164.762C58.2109 165.63 56.421 167.258 53.8775 167.581L53.8506 167.595ZM145.954 167.702C145.347 167.419 144.714 167.194 144.064 167.03C142.986 166.543 141.944 165.978 140.948 165.341C138.035 163.886 134.717 163.452 131.528 164.109C130.976 164.203 130.902 164.493 130.963 164.87C131.019 165.315 131.237 165.724 131.575 166.02C132.98 167.268 134.568 168.291 136.285 169.055C137.502 169.641 138.875 169.82 140.201 169.566C141.762 169.196 143.303 168.718 144.844 168.261C145.28 168.184 145.686 167.986 146.015 167.689L145.954 167.702ZM65.3299 102.312C65.8279 102.251 66.3124 102.151 66.8036 102.137C68.7684 102.09 70.4237 101.242 72.0318 100.24C72.2808 100.085 72.3548 99.9838 72.0318 99.7685C70.0574 98.3309 67.6476 97.618 65.2088 97.7499C63.2231 97.8949 61.2957 98.486 59.5701 99.4792C58.8972 99.8358 58.9511 100.098 59.5701 100.529C60.3188 100.968 61.1282 101.295 61.9723 101.498C63.0643 101.871 64.1882 102.144 65.3299 102.312ZM102.338 134.704C102.258 134.259 102.202 133.81 102.17 133.359C102.056 131.452 101.41 129.615 100.306 128.056C100.071 127.686 99.9698 127.693 99.7343 128.056C98.609 129.635 97.9619 131.503 97.8704 133.439C97.7608 133.986 97.7246 134.545 97.7627 135.101C97.9915 136.037 98.1665 136.985 98.4356 137.901C98.6682 138.803 99.026 139.668 99.4988 140.471C99.6333 140.666 99.7881 140.942 100.017 140.922C100.121 140.889 100.216 140.834 100.295 140.759C100.374 140.684 100.436 140.593 100.474 140.491C100.69 139.818 101.107 139.314 101.302 138.661C101.718 137.363 102.058 136.042 102.318 134.704H102.338ZM102.278 64.9672C101.961 63.0744 101.357 61.2411 100.488 59.5303C100.192 58.9853 99.815 59.0189 99.5257 59.5707C99.1876 60.1408 98.9166 60.7482 98.7182 61.3807C98.3212 62.6861 97.7358 63.9848 97.7426 65.3373C97.7096 67.7048 98.4152 70.0239 99.7612 71.9719C100.037 72.3554 100.111 72.2747 100.34 71.9719C101.679 69.9801 102.217 67.7462 102.278 64.9672ZM135.148 102.278C136.109 102.087 137.058 101.836 137.987 101.525C138.825 101.33 139.622 100.991 140.343 100.522C140.544 100.374 140.834 100.226 140.888 100.024C140.941 99.8223 140.585 99.6272 140.43 99.5532C138.189 98.5304 135.955 97.5816 133.365 97.8373C131.469 98.0302 129.647 98.6789 128.056 99.7281C127.733 99.93 127.612 100.017 128.015 100.3C130.128 101.688 132.622 102.379 135.148 102.278ZM118.138 118.158C118.225 119.565 118.938 120.682 119.564 121.839C120.003 122.714 120.675 123.452 121.506 123.969C122.337 124.487 123.295 124.765 124.274 124.773C124.584 124.773 124.779 124.773 124.759 124.349C124.746 123.384 124.474 122.441 123.971 121.617C123.345 120.579 122.418 119.755 121.314 119.255C120.34 118.674 119.26 118.294 118.138 118.138V118.158ZM81.8559 118.158C80.4496 118.239 79.3393 118.966 78.1752 119.585C77.3016 120.025 76.5662 120.698 76.0498 121.529C75.5334 122.36 75.2561 123.317 75.2482 124.295C75.2482 124.604 75.2482 124.8 75.6654 124.779C76.6324 124.768 77.5784 124.496 78.404 123.992C79.4395 123.363 80.2622 122.437 80.7658 121.334C81.3434 120.354 81.7144 119.267 81.8559 118.138V118.158ZM118.131 81.9036L118.42 81.8632C119.699 81.7152 120.742 80.9952 121.865 80.4434C122.727 79.9673 123.448 79.2725 123.956 78.4291C124.464 77.5857 124.741 76.6234 124.759 75.6391C124.759 75.3363 124.638 75.2555 124.355 75.269C123.386 75.2546 122.434 75.5236 121.616 76.0428C120.657 76.6195 119.883 77.4605 119.389 78.4651C118.884 79.5418 118.232 80.5578 118.131 81.8834V81.9036ZM81.8761 81.9036C81.8761 81.7959 81.8761 81.7353 81.8761 81.6681C81.6272 80.4406 81.1477 79.2716 80.463 78.2229C80.0252 77.3463 79.3536 76.6077 78.5224 76.0888C77.6912 75.5699 76.7327 75.2908 75.7529 75.2824C75.4568 75.2824 75.228 75.2824 75.2482 75.6862C75.2536 76.6435 75.5263 77.5804 76.0355 78.3911C76.6139 79.3494 77.4545 80.1222 78.4578 80.6184C79.5479 81.1163 80.5707 81.769 81.8761 81.8699V81.9036Z" fill="#F0F1F2"/>
</svg>
